<?xml version="1.0" encoding="UTF-8" standalone="no"?>
<!-- Created with Inkscape (http://www.inkscape.org/) -->
<svg
   xmlns:svg="http://www.w3.org/2000/svg"
   xmlns="http://www.w3.org/2000/svg"
   xmlns:xlink="http://www.w3.org/1999/xlink"
   version="1.0"
   width="64"
   height="64"
   id="svg2504">
  <defs
     id="defs2506">
    <linearGradient
       id="linearGradient8838">
      <stop
         id="stop8840"
         style="stop-color:#000000;stop-opacity:1"
         offset="0" />
      <stop
         id="stop8842"
         style="stop-color:#000000;stop-opacity:0"
         offset="1" />
    </linearGradient>
    <radialGradient
       cx="62.625"
       cy="4.625"
       r="10.625"
       fx="62.625"
       fy="4.625"
       id="radialGradient2500"
       xlink:href="#linearGradient8838"
       gradientUnits="userSpaceOnUse"
       gradientTransform="matrix(2.9176471,0,0,0.988234,-150.71765,48.92941)" />
    <linearGradient
       id="linearGradient2490-182-124">
      <stop
         id="stop2788"
         style="stop-color:#1f4b6a;stop-opacity:1"
         offset="0" />
      <stop
         id="stop2790"
         style="stop-color:#4083c2;stop-opacity:1"
         offset="1" />
    </linearGradient>
    <linearGradient
       x1="18.379412"
       y1="44.980297"
       x2="18.379412"
       y2="3.0816143"
       id="linearGradient2497"
       xlink:href="#linearGradient2490-182-124"
       gradientUnits="userSpaceOnUse"
       gradientTransform="matrix(1.2533672,0,0,1.2533674,1.919184,3.9191687)" />
    <linearGradient
       id="linearGradient3242-187-536">
      <stop
         id="stop2778"
         style="stop-color:#8badea;stop-opacity:1"
         offset="0" />
      <stop
         id="stop2780"
         style="stop-color:#6396cd;stop-opacity:1"
         offset="0.26238" />
      <stop
         id="stop2782"
         style="stop-color:#3b7caf;stop-opacity:1"
         offset="0.66093999" />
      <stop
         id="stop2784"
         style="stop-color:#194c70;stop-opacity:1"
         offset="1" />
    </linearGradient>
    <radialGradient
       cx="23.895569"
       cy="3.9900031"
       r="20.397499"
       fx="23.895569"
       fy="3.9900031"
       id="radialGradient2495"
       xlink:href="#linearGradient3242-187-536"
       gradientUnits="userSpaceOnUse"
       gradientTransform="matrix(0,2.9913581,-3.9485396,0,47.754682,-64.903143)" />
    <linearGradient
       id="linearGradient4873">
      <stop
         id="stop4875"
         style="stop-color:#ffffff;stop-opacity:1"
         offset="0" />
      <stop
         id="stop4877"
         style="stop-color:#ffffff;stop-opacity:0"
         offset="1" />
    </linearGradient>
    <linearGradient
       x1="63.397362"
       y1="-12.489107"
       x2="63.397362"
       y2="5.4675598"
       id="linearGradient2492"
       xlink:href="#linearGradient4873"
       gradientUnits="userSpaceOnUse"
       gradientTransform="matrix(2.8014404,0,0,2.8013767,-142.25072,43.835172)" />
  </defs>
  <g
     id="layer1">
    <path
       d="M 63,53.499998 C 63,59.298988 49.120825,63.999998 32,63.999998 C 14.879175,63.999998 1,59.298988 1,53.499998 C 1,47.701008 14.879175,42.999998 32,42.999998 C 49.120825,42.999998 63,47.701008 63,53.499998 L 63,53.499998 z"
       id="path8836"
       style="opacity:0.3;fill:url(#radialGradient2500);fill-opacity:1;fill-rule:evenodd;stroke:none;stroke-width:0.99999988;stroke-linecap:butt;stroke-linejoin:round;marker:none;marker-start:none;marker-mid:none;marker-end:none;stroke-miterlimit:4;stroke-dasharray:none;stroke-dashoffset:0;stroke-opacity:1;visibility:visible;display:inline;overflow:visible" />
    <path
       d="M 32.000001,8.501793 C 17.93098,8.501793 6.5018092,19.930961 6.5018092,33.999983 C 6.5018092,48.069004 17.93098,59.498177 32.000001,59.498173 C 46.069017,59.498173 57.498201,48.069004 57.498188,33.999983 C 57.498188,19.930961 46.069017,8.501793 32.000001,8.501793 z"
       id="path2555"
       style="fill:url(#radialGradient2495);fill-opacity:1;stroke:url(#linearGradient2497);stroke-width:1;stroke-linecap:round;stroke-linejoin:round;stroke-miterlimit:4;stroke-dasharray:none;stroke-dashoffset:0;stroke-opacity:1" />
    <path
       d="M 56.499998,33.999131 C 56.499998,47.530543 45.530168,58.499998 32.000309,58.499998 C 18.469211,58.499998 7.4999998,47.530419 7.4999998,33.999131 C 7.4999998,20.468344 18.469211,9.5000007 32.000309,9.5000007 C 45.530168,9.5000007 56.499998,20.468344 56.499998,33.999131 L 56.499998,33.999131 z"
       id="path8655"
       style="opacity:0.4;fill:none;fill-opacity:1;fill-rule:nonzero;stroke:url(#linearGradient2492);stroke-width:0.99999994;stroke-miterlimit:4;stroke-dasharray:none;stroke-opacity:1" />
    <path
       d="M 33.138048,40.752331 C 33.055449,37.667796 33.716015,34.673371 36.501634,32.552305 C 39.443959,30.153517 42.277653,27.152304 41.978192,23.614554 C 41.912803,20.202715 38.11289,17.529167 34.01876,17.144757 C 29.413527,16.47733 23.841224,18.127796 22.298042,21.890296 C 21.515374,23.720248 22.241163,27.003397 24.867786,27.003397 C 26.404101,27.003397 27.109738,25.965173 27.225663,25.015445 C 27.313373,24.29685 27.03137,23.65515 26.864831,23.061586 C 26.675068,22.385257 27.485148,21.074462 28.367435,20.540392 C 29.104688,20.094113 29.876043,19.944467 29.989744,19.915878 C 32.637425,19.250205 35.276782,20.720589 36.377968,22.510228 C 37.479155,24.299864 36.267083,27.014398 34.524399,29.654174 C 32.781716,32.293954 30.911505,35.292202 30.918977,38.476836 C 30.918977,39.689228 30.815719,40.101105 30.889086,40.591607 C 30.947705,40.983505 32.188119,40.936147 33.138048,40.752331 z M 31.929729,44.90395 C 29.398127,44.760175 27.645908,47.762563 29.166769,49.675491 C 30.52497,51.787555 34.333051,51.266175 34.985755,48.874475 C 35.664331,47.014622 34.031328,44.872903 31.92973,44.903948 L 31.929729,44.90395 z"
       id="path2502"
       style="font-size:72px;font-style:normal;font-weight:bold;opacity:1;fill:#1f4b6b;fill-opacity:1;fill-rule:nonzero;stroke:none;stroke-width:1px;stroke-linecap:butt;stroke-linejoin:miter;marker:none;marker-start:none;marker-mid:none;marker-end:none;stroke-miterlimit:4;stroke-dasharray:none;stroke-dashoffset:0;stroke-opacity:1;visibility:visible;display:inline;overflow:visible;enable-background:accumulate;font-family:Standard Symbols L" />
    <path
       d="M 33.138048,41.752331 C 33.055449,38.667796 33.716015,35.673371 36.501634,33.552305 C 39.443959,31.153517 42.277653,28.152304 41.978192,24.614554 C 41.912803,21.202715 38.11289,18.529167 34.01876,18.144757 C 29.413527,17.47733 23.841224,19.127796 22.298042,22.890296 C 21.515374,24.720248 22.241163,28.003397 24.867786,28.003397 C 26.404101,28.003397 27.109738,26.965173 27.225663,26.015445 C 27.313373,25.29685 27.03137,24.65515 26.864831,24.061586 C 26.675068,23.385257 27.485148,22.074462 28.367435,21.540392 C 29.104688,21.094113 29.876043,20.944467 29.989744,20.915878 C 32.637425,20.250205 35.276782,21.720589 36.377968,23.510228 C 37.479155,25.299864 36.267083,28.014398 34.524399,30.654174 C 32.781716,33.293954 30.911505,36.292202 30.918977,39.476836 C 30.918977,40.689228 30.815719,41.101105 30.889086,41.591607 C 30.947705,41.983505 32.188119,41.936147 33.138048,41.752331 z M 31.929729,45.90395 C 29.398127,45.760175 27.645908,48.762563 29.166769,50.675491 C 30.52497,52.787555 34.333051,52.266175 34.985755,49.874475 C 35.664331,48.014622 34.031328,45.872903 31.92973,45.903948 L 31.929729,45.90395 z"
       id="path3298"
       style="font-size:72px;font-style:normal;font-weight:bold;fill:#ffffff;fill-opacity:1;stroke:none;stroke-width:0.75;stroke-linecap:round;stroke-linejoin:round;stroke-miterlimit:4;stroke-dasharray:none;stroke-opacity:1;font-family:Standard Symbols L" />
  </g>
</svg>
