<?xml version="1.0" encoding="UTF-8" standalone="no"?>
<!-- Created with Inkscape (http://www.inkscape.org/) -->

<svg
   xmlns:dc="http://purl.org/dc/elements/1.1/"
   xmlns:cc="http://creativecommons.org/ns#"
   xmlns:rdf="http://www.w3.org/1999/02/22-rdf-syntax-ns#"
   xmlns:svg="http://www.w3.org/2000/svg"
   xmlns="http://www.w3.org/2000/svg"
   version="1.1"
   width="16"
   height="16"
   id="svg2">
  <defs
     id="defs3" />
  <metadata
     id="metadata6">
    <rdf:RDF>
      <cc:Work
         rdf:about="">
        <dc:format>image/svg+xml</dc:format>
        <dc:type
           rdf:resource="http://purl.org/dc/dcmitype/StillImage" />
        <dc:title></dc:title>
      </cc:Work>
    </rdf:RDF>
  </metadata>
  <g
     transform="translate(0,-1036.3622)"
     id="layer1">
    <path
       d="m 7.4679632,4.2456918 a 3.2699957,3.2699957 0 1 1 -6.53999136,0 3.2699957,3.2699957 0 1 1 6.53999136,0 z"
       transform="matrix(-0.68609744,0,0,0.68609744,14.00029,1037.9305)"
       id="path3807"
       style="fill:none;stroke:#000000;stroke-width:4.37255669;stroke-linecap:butt;stroke-linejoin:round;stroke-miterlimit:4;stroke-opacity:1;stroke-dasharray:none;stroke-dashoffset:0" />
    <path
       d="m 8.2176707,1043.1885 c -5.8306739,3.1677 -2.3576257,7.3714 -2.3576257,7.3714 1.0551556,-2.1255 3.5999494,-6.2732 3.5999494,-6.2732 0,0 -0.9210244,-0.7529 -1.2423237,-1.0982 z"
       id="path3809"
       style="fill:#ffffff;fill-opacity:1;stroke:#000000;stroke-width:1.29999995;stroke-miterlimit:4;stroke-opacity:1;stroke-dasharray:none" />
    <path
       d="m 7.4679632,4.2456918 a 3.2699957,3.2699957 0 1 1 -6.53999136,0 3.2699957,3.2699957 0 1 1 6.53999136,0 z"
       transform="matrix(0.68609744,0,0,0.68609744,1.9976001,1037.9305)"
       id="path3805"
       style="fill:none;stroke:#000000;stroke-width:4.37255669;stroke-linecap:butt;stroke-linejoin:round;stroke-miterlimit:4;stroke-opacity:1;stroke-dasharray:none;stroke-dashoffset:0" />
    <path
       d="m 8.2176707,1043.1885 c -5.8306739,3.1677 -2.3576257,7.3714 -2.3576257,7.3714 1.0551556,-2.1255 3.5999494,-6.2732 3.5999494,-6.2732 0,0 -0.9210244,-0.7529 -1.2423237,-1.0982 z"
       id="path3811"
       style="fill:#e6e6e6;fill-opacity:1;stroke:none" />
    <path
       d="m 7.7802226,1043.1885 c 5.8306744,3.1677 2.3576254,7.3714 2.3576254,7.3714 -1.0551554,-2.1255 -3.5999493,-6.2732 -3.5999493,-6.2732 0,0 0.9210245,-0.7529 1.2423239,-1.0982 z"
       id="path3024"
       style="fill:#ffffff;fill-opacity:1;stroke:#000000;stroke-width:1.29999995;stroke-miterlimit:4;stroke-opacity:1;stroke-dasharray:none" />
    <path
       d="m 7.4679632,4.2456918 a 3.2699957,3.2699957 0 1 1 -6.53999136,0 3.2699957,3.2699957 0 1 1 6.53999136,0 z"
       transform="matrix(-0.68609744,0,0,0.68609744,14.00029,1037.9305)"
       id="path3813"
       style="fill:none;stroke:#7fca9b;stroke-width:2.67028236;stroke-linecap:butt;stroke-linejoin:round;stroke-miterlimit:4;stroke-opacity:1;stroke-dasharray:none;stroke-dashoffset:0" />
    <path
       d="m 7.7802226,1043.1885 c 5.8306744,3.1677 2.3576254,7.3714 2.3576254,7.3714 -1.0551554,-2.1255 -3.5999493,-6.2732 -3.5999493,-6.2732 0,0 0.9210245,-0.7529 1.2423239,-1.0982 z"
       id="path3846"
       style="fill:#e6e6e6;fill-opacity:1;stroke:none" />
    <path
       d="m 7.4679632,4.2456918 a 3.2699957,3.2699957 0 1 1 -6.53999136,0 3.2699957,3.2699957 0 1 1 6.53999136,0 z"
       transform="matrix(0.68609744,0,0,0.68609744,1.9976001,1037.9305)"
       id="path3025"
       style="fill:none;stroke:#7fca9b;stroke-width:2.67028236;stroke-linecap:butt;stroke-linejoin:round;stroke-miterlimit:4;stroke-opacity:1;stroke-dasharray:none;stroke-dashoffset:0" />
  </g>
</svg>
