<?xml version="1.0" encoding="UTF-8" standalone="no"?>
<!-- Created with Inkscape (http://www.inkscape.org/) -->

<svg
   xmlns:dc="http://purl.org/dc/elements/1.1/"
   xmlns:cc="http://creativecommons.org/ns#"
   xmlns:rdf="http://www.w3.org/1999/02/22-rdf-syntax-ns#"
   xmlns:svg="http://www.w3.org/2000/svg"
   xmlns="http://www.w3.org/2000/svg"
   xmlns:xlink="http://www.w3.org/1999/xlink"
   xmlns:sodipodi="http://sodipodi.sourceforge.net/DTD/sodipodi-0.dtd"
   xmlns:inkscape="http://www.inkscape.org/namespaces/inkscape"
   width="16"
   height="16"
   id="svg2"
   inkscape:label="Pozadí"
   version="1.1"
   inkscape:version="0.48.0 r9654"
   sodipodi:docname="copyq.svg">
  <defs
     id="defs3">
    <linearGradient
       id="linearGradient5054">
      <stop
         id="stop5056"
         offset="0"
         style="stop-color:#ffffff;stop-opacity:1;" />
      <stop
         style="stop-color:#017cff;stop-opacity:1;"
         offset="0.61576396"
         id="stop5058" />
      <stop
         id="stop5060"
         offset="1"
         style="stop-color:#000000;stop-opacity:1;" />
    </linearGradient>
    <linearGradient
       id="linearGradient5016">
      <stop
         style="stop-color:#ffffff;stop-opacity:1;"
         offset="0"
         id="stop5018" />
      <stop
         id="stop5028"
         offset="0.54911274"
         style="stop-color:#017cff;stop-opacity:1;" />
      <stop
         style="stop-color:#000000;stop-opacity:1;"
         offset="1"
         id="stop5020" />
    </linearGradient>
    <linearGradient
       inkscape:collect="always"
       id="linearGradient4007">
      <stop
         style="stop-color:#000000;stop-opacity:1;"
         offset="0"
         id="stop4009" />
      <stop
         style="stop-color:#000000;stop-opacity:0;"
         offset="1"
         id="stop4011" />
    </linearGradient>
    <linearGradient
       id="linearGradient3976">
      <stop
         id="stop3978"
         offset="0"
         style="stop-color:#ffffff;stop-opacity:1;" />
      <stop
         style="stop-color:#ffffff;stop-opacity:0.57714283;"
         offset="0.38727573"
         id="stop3980" />
      <stop
         style="stop-color:#000000;stop-opacity:0.21714285;"
         offset="0.59615785"
         id="stop3982" />
      <stop
         id="stop3984"
         offset="0.7370255"
         style="stop-color:#7f7f7f;stop-opacity:0;" />
      <stop
         id="stop3986"
         offset="1"
         style="stop-color:#ffffff;stop-opacity:0.45714286;" />
    </linearGradient>
    <linearGradient
       id="linearGradient3920">
      <stop
         style="stop-color:#ffffff;stop-opacity:1;"
         offset="0"
         id="stop3922" />
      <stop
         id="stop3968"
         offset="0.28967828"
         style="stop-color:#ffffff;stop-opacity:0.57714283;" />
      <stop
         id="stop3930"
         offset="0.5923031"
         style="stop-color:#ff0101;stop-opacity:0.46857142;" />
      <stop
         style="stop-color:#ff1616;stop-opacity:0;"
         offset="0.83927333"
         id="stop3932" />
      <stop
         style="stop-color:#ffffff;stop-opacity:0.46285716;"
         offset="1"
         id="stop3924" />
    </linearGradient>
    <linearGradient
       id="linearGradient3888">
      <stop
         style="stop-color:#d5d5d5;stop-opacity:1;"
         offset="0"
         id="stop3890" />
      <stop
         id="stop3898"
         offset="0.29387325"
         style="stop-color:#99dcff;stop-opacity:1;" />
      <stop
         style="stop-color:#ffffff;stop-opacity:1;"
         offset="0.40750426"
         id="stop3900" />
      <stop
         style="stop-color:#d2d2d2;stop-opacity:1;"
         offset="1"
         id="stop3892" />
    </linearGradient>
    <linearGradient
       id="linearGradient3878">
      <stop
         style="stop-color:#000000;stop-opacity:1;"
         offset="0"
         id="stop3880" />
      <stop
         style="stop-color:#000000;stop-opacity:0;"
         offset="1"
         id="stop3882" />
    </linearGradient>
    <linearGradient
       inkscape:collect="always"
       xlink:href="#linearGradient4007"
       id="linearGradient4013"
       x1="9.4624662"
       y1="1047.7367"
       x2="16.029849"
       y2="1047.7367"
       gradientUnits="userSpaceOnUse" />
  </defs>
  <sodipodi:namedview
     id="base"
     pagecolor="#ffffff"
     bordercolor="#666666"
     borderopacity="1.0"
     inkscape:pageopacity="0.0"
     inkscape:pageshadow="2"
     inkscape:zoom="22.63"
     inkscape:cx="-0.12221473"
     inkscape:cy="5.9410595"
     inkscape:document-units="px"
     inkscape:current-layer="layer1"
     showgrid="true"
     inkscape:window-width="1366"
     inkscape:window-height="728"
     inkscape:window-x="0"
     inkscape:window-y="0"
     inkscape:window-maximized="1"
     inkscape:snap-global="false">
    <inkscape:grid
       type="xygrid"
       id="grid3865" />
  </sodipodi:namedview>
  <metadata
     id="metadata6">
    <rdf:RDF>
      <cc:Work
         rdf:about="">
        <dc:format>image/svg+xml</dc:format>
        <dc:type
           rdf:resource="http://purl.org/dc/dcmitype/StillImage" />
        <dc:title></dc:title>
      </cc:Work>
    </rdf:RDF>
  </metadata>
  <g
     inkscape:label="Vrstva 1"
     inkscape:groupmode="layer"
     id="layer1"
     transform="translate(0,-1036.3622)">
    <rect
       style="fill:#000000;fill-opacity:1;fill-rule:nonzero;stroke:none"
       id="rect3032"
       width="15.998291"
       height="15.998291"
       x="-16.044193"
       y="1036.3639" />
    <path
       sodipodi:nodetypes="scsscss"
       inkscape:connector-curvature="0"
       id="path3875"
       d="m 8.9208012,1040.7328 c -0.059175,0.6428 -0.2568228,2.5821 -0.2568228,2.5821 0,0 1.8041996,0.1574 2.5788246,0.2297 1.413216,0.1318 2.665027,-0.9147 2.796016,-2.3378 0.07227,-0.785 0.166667,-2.5467 0.166667,-2.5467 0,0 -1.854858,-0.2096 -2.488332,-0.2687 -1.413218,-0.1319 -2.665048,0.9148 -2.7960269,2.3377 z"
       style="fill:#ffffff;fill-opacity:1;stroke:#ffffff;stroke-width:3.85134767999999994;stroke-miterlimit:4;stroke-opacity:1;stroke-dasharray:none" />
    <path
       sodipodi:nodetypes="ccccc"
       inkscape:connector-curvature="0"
       id="path3871"
       d="m 9.960259,1044.337 c -11.2615313,-3.3204 -4.1888361,6.5825 -4.1888361,6.5825 l 1.168512,-2.0516 c 0.3336961,-0.9529 0.375217,-3.0109 2.187304,-2.2892 z"
       style="fill:#ffffff;fill-opacity:0.78431373;stroke:#ffffff;stroke-width:1.5306226;stroke-miterlimit:4;stroke-opacity:1;stroke-dasharray:none" />
    <path
       inkscape:connector-curvature="0"
       id="path3877"
       d="m 12.07433,1037.0059 c -2.067719,-0.1916 -3.9224451,1.3486 -4.1140715,3.4161 -0.059,0.6366 -0.2762607,2.6421 -0.2762607,2.6421 l -0.1067124,1.1514 1.1541765,0.076 c 0,0 1.8557111,0.172 2.6449141,0.2451 2.067615,0.1917 3.922436,-1.3484 4.114081,-3.4162 0.0806,-0.8695 0.182901,-2.6506 0.182901,-2.6506 l 0.03582,-1.0637 -1.055105,-0.1289 c 0,0 -1.883672,-0.2058 -2.57982,-0.2703 z m -0.207647,2.2404 c 0.350516,0.033 0.853003,0.1002 1.459621,0.1664 -0.03539,0.5937 -0.06717,1.0634 -0.107315,1.4965 -0.07875,0.8497 -0.785365,1.4651 -1.634919,1.3864 -0.461392,-0.043 -0.920467,-0.085 -1.524716,-0.1414 0.06337,-0.624 0.105347,-1.1366 0.141321,-1.5247 0.07873,-0.8495 0.816571,-1.4621 1.666026,-1.3834 z"
       style="font-size:medium;font-style:normal;font-variant:normal;font-weight:normal;font-stretch:normal;text-indent:0;text-align:start;text-decoration:none;line-height:normal;letter-spacing:normal;word-spacing:normal;text-transform:none;direction:ltr;block-progression:tb;writing-mode:lr-tb;text-anchor:start;baseline-shift:baseline;color:#000000;fill:#4d4d4d;fill-opacity:1;stroke:none;stroke-width:2.26365185000000002;marker:none;visibility:visible;display:inline;overflow:visible;enable-background:accumulate;font-family:Sans;-inkscape-font-specification:Sans" />
    <path
       style="fill:#4d4d4d;fill-opacity:1;stroke:none"
       d="m 10.495691,1044.1057 c -11.19733057,-4.4594 -4.7012113,6.8261 -4.7012113,6.8261 l 1.4133232,-2.7313 c 0.8108018,-1.628 0.3602854,-2.4148 2.3667486,-1.6157 z"
       id="path3873"
       inkscape:connector-curvature="0"
       sodipodi:nodetypes="ccccc" />
    <path
       sodipodi:nodetypes="ccsscssc"
       inkscape:connector-curvature="0"
       id="path3798"
       d="m 6.9697046,1040.4893 c 0.061994,0.5891 0.2682209,2.3668 0.2682209,2.3668 0,0 -1.7598344,0.601 -2.5363823,0.6703 -1.4167198,0.1263 -2.725327,-1.2787 -2.8625623,-2.5827 -0.075712,-0.7197 -0.1776614,-2.3346 -0.1776614,-2.3346 0,0 1.8592869,-0.1995 2.4943295,-0.2561 1.4167203,-0.1264 2.67646,0.8285 2.8136845,2.1326 z"
       style="fill:#ffffff;fill-opacity:1;stroke:#ffffff;stroke-width:3.71521139;stroke-miterlimit:4;stroke-opacity:1;stroke-dasharray:none" />
    <path
       style="fill:#ffffff;fill-opacity:0.78431373;stroke:#ffffff;stroke-width:1.60793245;stroke-miterlimit:4;stroke-opacity:1;stroke-dasharray:none"
       d="m 6.2850712,1044.2494 c 8.4375418,-3.1407 3.5315318,6.5656 3.5315318,6.5656 -0.7555012,-1.5357 -2.9102987,-5.4099 -3.5315318,-6.5656 z"
       id="path3869"
       inkscape:connector-curvature="0"
       sodipodi:nodetypes="ccc" />
    <path
       inkscape:connector-curvature="0"
       id="path3861"
       d="m 3.905757,1037.017 c -0.6847631,0.066 -2.5721177,0.2843 -2.5721177,0.2843 l -1.0407439,0.136 0.0663332,1.0475 c 0,0 0.10046432,1.7625 0.18323473,2.617 0.19710639,2.0349 2.05002021,3.5605 4.08475091,3.3634 0.7748643,-0.075 2.6102961,-0.2529 2.6102961,-0.2529 l 1.1137263,-0.1078 -0.1078763,-1.1137 c 0,0 -0.2270899,-1.9818 -0.2876564,-2.607 -0.1970871,-2.0347 -2.0150908,-3.5638 -4.0499373,-3.3667 z m 0.2157526,2.2274 c 0.8308682,-0.081 1.5262467,0.5241 1.6067322,1.355 0.037186,0.3839 0.1147786,0.8786 0.1797704,1.4932 -0.594845,0.058 -1.0402412,0.1008 -1.4965697,0.145 -0.8309828,0.081 -1.5610409,-0.5206 -1.641536,-1.3516 -0.041043,-0.4237 -0.069611,-0.8825 -0.1067782,-1.4651 0.599843,-0.069 1.1084664,-0.1425 1.4583914,-0.1764 z"
       style="font-size:medium;font-style:normal;font-variant:normal;font-weight:normal;font-stretch:normal;text-indent:0;text-align:start;text-decoration:none;line-height:normal;letter-spacing:normal;word-spacing:normal;text-transform:none;direction:ltr;block-progression:tb;writing-mode:lr-tb;text-anchor:start;baseline-shift:baseline;color:#000000;fill:#d40000;fill-opacity:1;stroke:none;stroke-width:2;marker:none;visibility:visible;display:inline;overflow:visible;enable-background:accumulate;font-family:Sans;-inkscape-font-specification:Sans" />
    <path
       sodipodi:nodetypes="ccc"
       inkscape:connector-curvature="0"
       id="path3863"
       d="m 6.2926582,1043.9951 c 8.3182788,-2.0398 3.5721032,6.8656 3.5721032,6.8656 -1.7490202,-3.44 -2.1674962,-4.0598 -3.5721032,-6.8656 z"
       style="fill:#d40000;fill-opacity:1;stroke:none" />
  </g>
</svg>
