<?xml version="1.0" encoding="UTF-8" standalone="no"?>
<!-- Created with Inkscape (http://www.inkscape.org/) -->

<svg
   xmlns:dc="http://purl.org/dc/elements/1.1/"
   xmlns:cc="http://creativecommons.org/ns#"
   xmlns:rdf="http://www.w3.org/1999/02/22-rdf-syntax-ns#"
   xmlns:svg="http://www.w3.org/2000/svg"
   xmlns="http://www.w3.org/2000/svg"
   xmlns:xlink="http://www.w3.org/1999/xlink"
   xmlns:sodipodi="http://sodipodi.sourceforge.net/DTD/sodipodi-0.dtd"
   xmlns:inkscape="http://www.inkscape.org/namespaces/inkscape"
   width="16"
   height="16"
   id="svg2"
   inkscape:label="Pozadí"
   version="1.1"
   inkscape:version="0.48.0 r9654"
   sodipodi:docname="copyq.svg">
  <defs
     id="defs3">
    <linearGradient
       id="linearGradient5054">
      <stop
         id="stop5056"
         offset="0"
         style="stop-color:#ffffff;stop-opacity:1;" />
      <stop
         style="stop-color:#017cff;stop-opacity:1;"
         offset="0.61576396"
         id="stop5058" />
      <stop
         id="stop5060"
         offset="1"
         style="stop-color:#000000;stop-opacity:1;" />
    </linearGradient>
    <linearGradient
       id="linearGradient5016">
      <stop
         style="stop-color:#ffffff;stop-opacity:1;"
         offset="0"
         id="stop5018" />
      <stop
         id="stop5028"
         offset="0.54911274"
         style="stop-color:#017cff;stop-opacity:1;" />
      <stop
         style="stop-color:#000000;stop-opacity:1;"
         offset="1"
         id="stop5020" />
    </linearGradient>
    <linearGradient
       inkscape:collect="always"
       id="linearGradient4007">
      <stop
         style="stop-color:#000000;stop-opacity:1;"
         offset="0"
         id="stop4009" />
      <stop
         style="stop-color:#000000;stop-opacity:0;"
         offset="1"
         id="stop4011" />
    </linearGradient>
    <linearGradient
       id="linearGradient3976">
      <stop
         id="stop3978"
         offset="0"
         style="stop-color:#ffffff;stop-opacity:1;" />
      <stop
         style="stop-color:#ffffff;stop-opacity:0.57714283;"
         offset="0.38727573"
         id="stop3980" />
      <stop
         style="stop-color:#000000;stop-opacity:0.21714285;"
         offset="0.59615785"
         id="stop3982" />
      <stop
         id="stop3984"
         offset="0.7370255"
         style="stop-color:#7f7f7f;stop-opacity:0;" />
      <stop
         id="stop3986"
         offset="1"
         style="stop-color:#ffffff;stop-opacity:0.45714286;" />
    </linearGradient>
    <linearGradient
       id="linearGradient3920">
      <stop
         style="stop-color:#ffffff;stop-opacity:1;"
         offset="0"
         id="stop3922" />
      <stop
         id="stop3968"
         offset="0.28967828"
         style="stop-color:#ffffff;stop-opacity:0.57714283;" />
      <stop
         id="stop3930"
         offset="0.5923031"
         style="stop-color:#ff0101;stop-opacity:0.46857142;" />
      <stop
         style="stop-color:#ff1616;stop-opacity:0;"
         offset="0.83927333"
         id="stop3932" />
      <stop
         style="stop-color:#ffffff;stop-opacity:0.46285716;"
         offset="1"
         id="stop3924" />
    </linearGradient>
    <linearGradient
       id="linearGradient3888">
      <stop
         style="stop-color:#d5d5d5;stop-opacity:1;"
         offset="0"
         id="stop3890" />
      <stop
         id="stop3898"
         offset="0.29387325"
         style="stop-color:#99dcff;stop-opacity:1;" />
      <stop
         style="stop-color:#ffffff;stop-opacity:1;"
         offset="0.40750426"
         id="stop3900" />
      <stop
         style="stop-color:#d2d2d2;stop-opacity:1;"
         offset="1"
         id="stop3892" />
    </linearGradient>
    <linearGradient
       id="linearGradient3878">
      <stop
         style="stop-color:#000000;stop-opacity:1;"
         offset="0"
         id="stop3880" />
      <stop
         style="stop-color:#000000;stop-opacity:0;"
         offset="1"
         id="stop3882" />
    </linearGradient>
    <linearGradient
       inkscape:collect="always"
       xlink:href="#linearGradient4007"
       id="linearGradient4013"
       x1="9.4624662"
       y1="1047.7367"
       x2="16.029849"
       y2="1047.7367"
       gradientUnits="userSpaceOnUse" />
  </defs>
  <sodipodi:namedview
     id="base"
     pagecolor="#ffffff"
     bordercolor="#666666"
     borderopacity="1.0"
     inkscape:pageopacity="0.0"
     inkscape:pageshadow="2"
     inkscape:zoom="22.63"
     inkscape:cx="9.5331101"
     inkscape:cy="5.4549791"
     inkscape:document-units="px"
     inkscape:current-layer="layer1"
     showgrid="true"
     inkscape:window-width="1366"
     inkscape:window-height="728"
     inkscape:window-x="0"
     inkscape:window-y="0"
     inkscape:window-maximized="1"
     inkscape:snap-global="false">
    <inkscape:grid
       type="xygrid"
       id="grid3865" />
  </sodipodi:namedview>
  <metadata
     id="metadata6">
    <rdf:RDF>
      <cc:Work
         rdf:about="">
        <dc:format>image/svg+xml</dc:format>
        <dc:type
           rdf:resource="http://purl.org/dc/dcmitype/StillImage" />
        <dc:title></dc:title>
      </cc:Work>
    </rdf:RDF>
  </metadata>
  <g
     inkscape:label="Vrstva 1"
     inkscape:groupmode="layer"
     id="layer1"
     transform="translate(0,-1036.3622)">
    <rect
       style="fill:#000000;fill-opacity:1;fill-rule:nonzero;stroke:none"
       id="rect3032"
       width="15.998291"
       height="15.998291"
       x="-16.044193"
       y="1036.3639" />
    <path
       style="font-size:medium;font-style:normal;font-variant:normal;font-weight:normal;font-stretch:normal;text-indent:0;text-align:start;text-decoration:none;line-height:normal;letter-spacing:normal;word-spacing:normal;text-transform:none;direction:ltr;block-progression:tb;writing-mode:lr-tb;text-anchor:start;baseline-shift:baseline;color:#000000;fill:#ffffff;fill-opacity:1;stroke:#ffffff;stroke-width:1.20000005;stroke-linejoin:round;stroke-miterlimit:4;stroke-opacity:1;stroke-dasharray:none;marker:none;visibility:visible;display:inline;overflow:visible;enable-background:accumulate;font-family:Sans;-inkscape-font-specification:Sans"
       d="m 11.535553,1037.3336 c 0.647148,0.01 2.433861,0.056 2.433861,0.056 l 0.98652,0.042 0.02383,0.9872 c 0,0 0.05053,1.6601 0.04311,2.4676 -0.01768,1.9233 -1.628933,3.5051 -3.552014,3.4874 -0.732321,-0.01 -2.4670604,-0.023 -2.4670604,-0.023 l -1.0526444,-0.01 0.00967,-1.0527 c 0,0 0.050136,-1.8759 0.05557,-2.4669 0.017674,-1.923 1.5959429,-3.5052 3.5191248,-3.4876 z m -0.01934,2.1051 c -0.785358,-0.01 -1.387335,0.6166 -1.394556,1.4018 -0.0034,0.3629 -0.03545,0.8328 -0.04589,1.4142 0.562238,0.01 0.983134,0.01 1.41445,0.012 0.785464,0.01 1.420226,-0.6161 1.427448,-1.4014 0.0036,-0.4004 -0.0072,-0.8328 -0.0202,-1.3818 -0.567839,-0.016 -1.050529,-0.042 -1.381255,-0.045 z"
       id="path3020"
       inkscape:connector-curvature="0" />
    <path
       style="fill:#ffffff;fill-opacity:1;stroke:#ffffff;stroke-width:1.20000005;stroke-miterlimit:4;stroke-opacity:1;stroke-dasharray:none"
       d="m 8.0363368,1043.0781 c -6.7924401,3.6903 -2.7465141,8.5874 -2.7465141,8.5874 1.2292023,-2.4762 4.1937591,-7.308 4.1937591,-7.308 0,0 -1.0729475,-0.8772 -1.447245,-1.2794 z"
       id="path3022"
       inkscape:connector-curvature="0"
       sodipodi:nodetypes="cccc" />
    <path
       inkscape:connector-curvature="0"
       id="path3025"
       d="m 11.535553,1037.3336 c 0.647148,0.01 2.433861,0.056 2.433861,0.056 l 0.98652,0.042 0.02383,0.9872 c 0,0 0.05053,1.6601 0.04311,2.4676 -0.01768,1.9233 -1.628933,3.5051 -3.552014,3.4874 -0.732321,-0.01 -2.4670604,-0.023 -2.4670604,-0.023 l -1.0526444,-0.01 0.00967,-1.0527 c 0,0 0.050136,-1.8759 0.05557,-2.4669 0.017674,-1.923 1.5959429,-3.5052 3.5191248,-3.4876 z m -0.01934,2.1051 c -0.785358,-0.01 -1.387335,0.6166 -1.394556,1.4018 -0.0034,0.3629 -0.03545,0.8328 -0.04589,1.4142 0.562238,0.01 0.983134,0.01 1.41445,0.012 0.785464,0.01 1.420226,-0.6161 1.427448,-1.4014 0.0036,-0.4004 -0.0072,-0.8328 -0.0202,-1.3818 -0.567839,-0.016 -1.050529,-0.042 -1.381255,-0.045 z"
       style="font-size:medium;font-style:normal;font-variant:normal;font-weight:normal;font-stretch:normal;text-indent:0;text-align:start;text-decoration:none;line-height:normal;letter-spacing:normal;word-spacing:normal;text-transform:none;direction:ltr;block-progression:tb;writing-mode:lr-tb;text-anchor:start;baseline-shift:baseline;color:#000000;fill:#00aad4;fill-opacity:1;stroke:none;stroke-width:2;marker:none;visibility:visible;display:inline;overflow:visible;enable-background:accumulate;font-family:Sans;-inkscape-font-specification:Sans" />
    <path
       inkscape:connector-curvature="0"
       id="path3842"
       d="m 4.465876,1037.3336 c -0.6471483,0.01 -2.4338615,0.056 -2.4338615,0.056 l -0.9865203,0.042 -0.02383,0.9872 c 0,0 -0.050535,1.6601 -0.043112,2.4676 0.017676,1.9233 1.62893347,3.5051 3.55201407,3.4874 0.7323219,-0.01 2.4670588,-0.023 2.4670588,-0.023 l 1.0526444,-0.01 -0.00967,-1.0527 c 0,0 -0.050136,-1.8759 -0.05557,-2.4669 -0.017674,-1.923 -1.5959421,-3.5052 -3.5191224,-3.4876 z m 0.019338,2.1051 c 0.785358,-0.01 1.3873344,0.6166 1.3945562,1.4018 0.00336,0.3629 0.035446,0.8328 0.045895,1.4142 -0.5622381,0.01 -0.9831346,0.01 -1.4144501,0.012 -0.7854645,0.01 -1.4202264,-0.6161 -1.4274481,-1.4014 -0.00364,-0.4004 0.00719,-0.8328 0.020197,-1.3818 0.5678389,-0.016 1.0505284,-0.042 1.3812547,-0.045 z"
       style="font-size:medium;font-style:normal;font-variant:normal;font-weight:normal;font-stretch:normal;text-indent:0;text-align:start;text-decoration:none;line-height:normal;letter-spacing:normal;word-spacing:normal;text-transform:none;direction:ltr;block-progression:tb;writing-mode:lr-tb;text-anchor:start;baseline-shift:baseline;color:#000000;fill:#ffffff;fill-opacity:1;stroke:#ffffff;stroke-width:1.2;stroke-linejoin:round;stroke-miterlimit:4;stroke-opacity:1;stroke-dasharray:none;marker:none;visibility:visible;display:inline;overflow:visible;enable-background:accumulate;font-family:Sans;-inkscape-font-specification:Sans" />
    <path
       sodipodi:nodetypes="cccc"
       inkscape:connector-curvature="0"
       id="path3027"
       d="m 8.0363368,1043.0781 c -6.7924401,3.6903 -2.7465141,8.5874 -2.7465141,8.5874 1.2292023,-2.4762 4.1937591,-7.308 4.1937591,-7.308 0,0 -1.0729475,-0.8772 -1.447245,-1.2794 z"
       style="fill:#333333;fill-opacity:1;stroke:none" />
    <path
       sodipodi:nodetypes="cccc"
       inkscape:connector-curvature="0"
       id="path3024"
       d="m 7.9650899,1043.0781 c 6.7924401,3.6903 2.7465141,8.5874 2.7465141,8.5874 -1.2292023,-2.4762 -4.1937585,-7.308 -4.1937585,-7.308 0,0 1.0729469,-0.8772 1.4472444,-1.2794 z"
       style="fill:#ffffff;fill-opacity:1;stroke:#ffffff;stroke-opacity:1;stroke-width:1.2;stroke-miterlimit:4;stroke-dasharray:none" />
    <path
       style="font-size:medium;font-style:normal;font-variant:normal;font-weight:normal;font-stretch:normal;text-indent:0;text-align:start;text-decoration:none;line-height:normal;letter-spacing:normal;word-spacing:normal;text-transform:none;direction:ltr;block-progression:tb;writing-mode:lr-tb;text-anchor:start;baseline-shift:baseline;color:#000000;fill:#00aad4;fill-opacity:1;stroke:none;stroke-width:2;marker:none;visibility:visible;display:inline;overflow:visible;enable-background:accumulate;font-family:Sans;-inkscape-font-specification:Sans"
       d="m 4.465876,1037.3336 c -0.6471483,0.01 -2.4338615,0.056 -2.4338615,0.056 l -0.9865203,0.042 -0.02383,0.9872 c 0,0 -0.050535,1.6601 -0.043112,2.4676 0.017676,1.9233 1.62893347,3.5051 3.55201407,3.4874 0.7323219,-0.01 2.4670588,-0.023 2.4670588,-0.023 l 1.0526444,-0.01 -0.00967,-1.0527 c 0,0 -0.050136,-1.8759 -0.05557,-2.4669 -0.017674,-1.923 -1.5959421,-3.5052 -3.5191224,-3.4876 z m 0.019338,2.1051 c 0.785358,-0.01 1.3873344,0.6166 1.3945562,1.4018 0.00336,0.3629 0.035446,0.8328 0.045895,1.4142 -0.5622381,0.01 -0.9831346,0.01 -1.4144501,0.012 -0.7854645,0.01 -1.4202264,-0.6161 -1.4274481,-1.4014 -0.00364,-0.4004 0.00719,-0.8328 0.020197,-1.3818 0.5678389,-0.016 1.0505284,-0.042 1.3812547,-0.045 z"
       id="path3844"
       inkscape:connector-curvature="0" />
    <path
       style="fill:#333333;fill-opacity:1;stroke:none"
       d="m 7.9650899,1043.0781 c 6.7924401,3.6903 2.7465141,8.5874 2.7465141,8.5874 -1.2292023,-2.4762 -4.1937585,-7.308 -4.1937585,-7.308 0,0 1.0729469,-0.8772 1.4472444,-1.2794 z"
       id="path3846"
       inkscape:connector-curvature="0"
       sodipodi:nodetypes="cccc" />
  </g>
</svg>
