<?xml version="1.0" standalone="no"?>
<!DOCTYPE svg PUBLIC "-//W3C//DTD SVG 20010904//EN"
  "http://www.w3.org/TR/2001/REC-SVG-20010904/DTD/svg10.dtd">
<svg width="16" height="16">
  <circle cx="0" cy="0" r="1" fill="white"/>
  <circle cx="1" cy="0" r="1" fill="white"/>
  <circle cx="2" cy="0" r="1" fill="white"/>
  <circle cx="3" cy="0" r="1" fill="grey73"/>
  <circle cx="4" cy="0" r="1" fill="rgba(36.8612%,34.1176%,22.7451%,1)"/>
  <circle cx="5" cy="0" r="1" fill="rgba(42.3514%,35.2941%,9.01961%,1)"/>
  <circle cx="6" cy="0" r="1" fill="rgba(34.5098%,30.5867%,15.6863%,1)"/>
  <circle cx="7" cy="0" r="1" fill="rgba(164,164,164,1)"/>
  <circle cx="8" cy="0" r="1" fill="grey90"/>
  <circle cx="9" cy="0" r="1" fill="rgba(43.1357%,42.3514%,39.6078%,1)"/>
  <circle cx="10" cy="0" r="1" fill="rgba(37.2549%,31.7632%,11.3725%,1)"/>
  <circle cx="11" cy="0" r="1" fill="rgba(93,82,38,1)"/>
  <circle cx="12" cy="0" r="1" fill="rgba(134,134,132,1)"/>
  <circle cx="13" cy="0" r="1" fill="rgba(249,249,249,1)"/>
  <circle cx="14" cy="0" r="1" fill="white"/>
  <circle cx="15" cy="0" r="1" fill="white"/>
  <circle cx="0" cy="1" r="1" fill="white"/>
  <circle cx="1" cy="1" r="1" fill="white"/>
  <circle cx="2" cy="1" r="1" fill="rgba(177,177,177,1)"/>
  <circle cx="3" cy="1" r="1" fill="rgba(50.9789%,40.3922%,0.392157%,1)"/>
  <circle cx="4" cy="1" r="1" fill="rgba(254,201,0,1)"/>
  <circle cx="5" cy="1" r="1" fill="rgba(255,202,0,1)"/>
  <circle cx="6" cy="1" r="1" fill="rgba(255,202,0,1)"/>
  <circle cx="7" cy="1" r="1" fill="rgba(164,130,0,1)"/>
  <circle cx="8" cy="1" r="1" fill="rgba(30.1946%,24.3137%,3.92157%,1)"/>
  <circle cx="9" cy="1" r="1" fill="rgba(231,183,0,1)"/>
  <circle cx="10" cy="1" r="1" fill="rgba(255,202,0,1)"/>
  <circle cx="11" cy="1" r="1" fill="rgba(255,202,0,1)"/>
  <circle cx="12" cy="1" r="1" fill="rgba(208,165,0,1)"/>
  <circle cx="13" cy="1" r="1" fill="rgba(34.1161%,32.1569%,24.7059%,1)"/>
  <circle cx="14" cy="1" r="1" fill="rgba(253,253,253,1)"/>
  <circle cx="15" cy="1" r="1" fill="white"/>
  <circle cx="0" cy="2" r="1" fill="white"/>
  <circle cx="1" cy="2" r="1" fill="rgba(254,254,254,1)"/>
  <circle cx="2" cy="2" r="1" fill="rgba(33.3333%,28.6259%,10.5882%,1)"/>
  <circle cx="3" cy="2" r="1" fill="rgba(255,202,0,1)"/>
  <circle cx="4" cy="2" r="1" fill="rgba(233,185,0,1)"/>
  <circle cx="5" cy="2" r="1" fill="rgba(139,110,0,1)"/>
  <circle cx="6" cy="2" r="1" fill="rgba(213,169,0,1)"/>
  <circle cx="7" cy="2" r="1" fill="rgba(255,202,0,1)"/>
  <circle cx="8" cy="2" r="1" fill="rgba(244,193,0,1)"/>
  <circle cx="9" cy="2" r="1" fill="rgba(253,200,0,1)"/>
  <circle cx="10" cy="2" r="1" fill="rgba(162,128,0,1)"/>
  <circle cx="11" cy="2" r="1" fill="rgba(193,153,0,1)"/>
  <circle cx="12" cy="2" r="1" fill="rgba(255,202,0,1)"/>
  <circle cx="13" cy="2" r="1" fill="rgba(172,136,0,1)"/>
  <circle cx="14" cy="2" r="1" fill="grey69"/>
  <circle cx="15" cy="2" r="1" fill="white"/>
  <circle cx="0" cy="3" r="1" fill="white"/>
  <circle cx="1" cy="3" r="1" fill="grey91"/>
  <circle cx="2" cy="3" r="1" fill="rgba(128,101,0,1)"/>
  <circle cx="3" cy="3" r="1" fill="rgba(255,202,0,1)"/>
  <circle cx="4" cy="3" r="1" fill="rgba(40.7828%,32.9397%,2.7451%,1)"/>
  <circle cx="5" cy="3" r="1" fill="rgba(206,206,206,1)"/>
  <circle cx="6" cy="3" r="1" fill="rgba(84,74,38,1)"/>
  <circle cx="7" cy="3" r="1" fill="rgba(255,202,0,1)"/>
  <circle cx="8" cy="3" r="1" fill="rgba(255,202,0,1)"/>
  <circle cx="9" cy="3" r="1" fill="rgba(164,130,0,1)"/>
  <circle cx="10" cy="3" r="1" fill="rgba(160,160,160,1)"/>
  <circle cx="11" cy="3" r="1" fill="rgba(99,98,95,1)"/>
  <circle cx="12" cy="3" r="1" fill="rgba(233,185,0,1)"/>
  <circle cx="13" cy="3" r="1" fill="rgba(244,193,0,1)"/>
  <circle cx="14" cy="3" r="1" fill="rgba(116,116,116,1)"/>
  <circle cx="15" cy="3" r="1" fill="white"/>
  <circle cx="0" cy="4" r="1" fill="white"/>
  <circle cx="1" cy="4" r="1" fill="grey95"/>
  <circle cx="2" cy="4" r="1" fill="rgba(45.4887%,36.0769%,0.784314%,1)"/>
  <circle cx="3" cy="4" r="1" fill="rgba(255,202,0,1)"/>
  <circle cx="4" cy="4" r="1" fill="rgba(57.2534%,45.4902%,0.392157%,1)"/>
  <circle cx="5" cy="4" r="1" fill="grey42"/>
  <circle cx="6" cy="4" r="1" fill="rgba(41.1749%,33.3318%,3.92157%,1)"/>
  <circle cx="7" cy="4" r="1" fill="rgba(255,202,0,1)"/>
  <circle cx="8" cy="4" r="1" fill="rgba(255,202,0,1)"/>
  <circle cx="9" cy="4" r="1" fill="rgba(199,158,0,1)"/>
  <circle cx="10" cy="4" r="1" fill="rgba(94,93,88,1)"/>
  <circle cx="11" cy="4" r="1" fill="rgba(30.5882%,28.2338%,18.4314%,1)"/>
  <circle cx="12" cy="4" r="1" fill="rgba(245,194,0,1)"/>
  <circle cx="13" cy="4" r="1" fill="rgba(230,182,0,1)"/>
  <circle cx="14" cy="4" r="1" fill="grey50"/>
  <circle cx="15" cy="4" r="1" fill="white"/>
  <circle cx="0" cy="5" r="1" fill="white"/>
  <circle cx="1" cy="5" r="1" fill="white"/>
  <circle cx="2" cy="5" r="1" fill="rgba(95,90,71,1)"/>
  <circle cx="3" cy="5" r="1" fill="rgba(233,185,0,1)"/>
  <circle cx="4" cy="5" r="1" fill="rgba(255,202,0,1)"/>
  <circle cx="5" cy="5" r="1" fill="rgba(241,191,0,1)"/>
  <circle cx="6" cy="5" r="1" fill="rgba(255,202,0,1)"/>
  <circle cx="7" cy="5" r="1" fill="rgba(253,200,0,1)"/>
  <circle cx="8" cy="5" r="1" fill="rgba(210,166,0,1)"/>
  <circle cx="9" cy="5" r="1" fill="rgba(255,202,0,1)"/>
  <circle cx="10" cy="5" r="1" fill="rgba(238,189,0,1)"/>
  <circle cx="11" cy="5" r="1" fill="rgba(247,196,0,1)"/>
  <circle cx="12" cy="5" r="1" fill="rgba(255,202,0,1)"/>
  <circle cx="13" cy="5" r="1" fill="rgba(126,100,1,1)"/>
  <circle cx="14" cy="5" r="1" fill="grey83"/>
  <circle cx="15" cy="5" r="1" fill="white"/>
  <circle cx="0" cy="6" r="1" fill="white"/>
  <circle cx="1" cy="6" r="1" fill="white"/>
  <circle cx="2" cy="6" r="1" fill="grey91"/>
  <circle cx="3" cy="6" r="1" fill="rgba(79,70,37,1)"/>
  <circle cx="4" cy="6" r="1" fill="rgba(179,142,0,1)"/>
  <circle cx="5" cy="6" r="1" fill="rgba(238,189,0,1)"/>
  <circle cx="6" cy="6" r="1" fill="rgba(204,162,0,1)"/>
  <circle cx="7" cy="6" r="1" fill="rgba(30.9804%,25.0965%,2.35294%,1)"/>
  <circle cx="8" cy="6" r="1" fill="rgba(12.9397%,11.3725%,6.66667%,1)"/>
  <circle cx="9" cy="6" r="1" fill="rgba(165,131,0,1)"/>
  <circle cx="10" cy="6" r="1" fill="rgba(235,186,0,1)"/>
  <circle cx="11" cy="6" r="1" fill="rgba(227,180,0,1)"/>
  <circle cx="12" cy="6" r="1" fill="rgba(50.1946%,40%,0.784314%,1)"/>
  <circle cx="13" cy="6" r="1" fill="rgba(147,147,146,1)"/>
  <circle cx="14" cy="6" r="1" fill="white"/>
  <circle cx="15" cy="6" r="1" fill="white"/>
  <circle cx="0" cy="7" r="1" fill="white"/>
  <circle cx="1" cy="7" r="1" fill="white"/>
  <circle cx="2" cy="7" r="1" fill="white"/>
  <circle cx="3" cy="7" r="1" fill="rgba(251,251,251,1)"/>
  <circle cx="4" cy="7" r="1" fill="grey65"/>
  <circle cx="5" cy="7" r="1" fill="rgba(132,132,132,1)"/>
  <circle cx="6" cy="7" r="1" fill="rgba(39,39,39,1)"/>
  <circle cx="7" cy="7" r="1" fill="grey77"/>
  <circle cx="8" cy="7" r="1" fill="rgba(167,167,167,1)"/>
  <circle cx="9" cy="7" r="1" fill="rgba(44,44,44,1)"/>
  <circle cx="10" cy="7" r="1" fill="rgba(80,80,80,1)"/>
  <circle cx="11" cy="7" r="1" fill="grey51"/>
  <circle cx="12" cy="7" r="1" fill="grey85"/>
  <circle cx="13" cy="7" r="1" fill="white"/>
  <circle cx="14" cy="7" r="1" fill="white"/>
  <circle cx="15" cy="7" r="1" fill="white"/>
  <circle cx="0" cy="8" r="1" fill="white"/>
  <circle cx="1" cy="8" r="1" fill="white"/>
  <circle cx="2" cy="8" r="1" fill="white"/>
  <circle cx="3" cy="8" r="1" fill="white"/>
  <circle cx="4" cy="8" r="1" fill="white"/>
  <circle cx="5" cy="8" r="1" fill="rgba(244,244,244,1)"/>
  <circle cx="6" cy="8" r="1" fill="rgba(37,37,37,1)"/>
  <circle cx="7" cy="8" r="1" fill="rgba(228,228,228,1)"/>
  <circle cx="8" cy="8" r="1" fill="rgba(230,230,230,1)"/>
  <circle cx="9" cy="8" r="1" fill="rgba(123,123,123,1)"/>
  <circle cx="10" cy="8" r="1" fill="rgba(165,165,165,1)"/>
  <circle cx="11" cy="8" r="1" fill="white"/>
  <circle cx="12" cy="8" r="1" fill="white"/>
  <circle cx="13" cy="8" r="1" fill="white"/>
  <circle cx="14" cy="8" r="1" fill="white"/>
  <circle cx="15" cy="8" r="1" fill="white"/>
  <circle cx="0" cy="9" r="1" fill="white"/>
  <circle cx="1" cy="9" r="1" fill="white"/>
  <circle cx="2" cy="9" r="1" fill="white"/>
  <circle cx="3" cy="9" r="1" fill="white"/>
  <circle cx="4" cy="9" r="1" fill="white"/>
  <circle cx="5" cy="9" r="1" fill="rgba(147,147,147,1)"/>
  <circle cx="6" cy="9" r="1" fill="grey36"/>
  <circle cx="7" cy="9" r="1" fill="rgba(185,185,185,1)"/>
  <circle cx="8" cy="9" r="1" fill="rgba(230,230,230,1)"/>
  <circle cx="9" cy="9" r="1" fill="grey87"/>
  <circle cx="10" cy="9" r="1" fill="rgba(81,81,81,1)"/>
  <circle cx="11" cy="9" r="1" fill="white"/>
  <circle cx="12" cy="9" r="1" fill="white"/>
  <circle cx="13" cy="9" r="1" fill="white"/>
  <circle cx="14" cy="9" r="1" fill="white"/>
  <circle cx="15" cy="9" r="1" fill="white"/>
  <circle cx="0" cy="10" r="1" fill="white"/>
  <circle cx="1" cy="10" r="1" fill="white"/>
  <circle cx="2" cy="10" r="1" fill="white"/>
  <circle cx="3" cy="10" r="1" fill="white"/>
  <circle cx="4" cy="10" r="1" fill="white"/>
  <circle cx="5" cy="10" r="1" fill="rgba(90,90,90,1)"/>
  <circle cx="6" cy="10" r="1" fill="rgba(185,185,185,1)"/>
  <circle cx="7" cy="10" r="1" fill="rgba(116,116,116,1)"/>
  <circle cx="8" cy="10" r="1" fill="rgba(230,230,230,1)"/>
  <circle cx="9" cy="10" r="1" fill="rgba(230,230,230,1)"/>
  <circle cx="10" cy="10" r="1" fill="rgba(30.1946%,30.1946%,30.1946%,1)"/>
  <circle cx="11" cy="10" r="1" fill="white"/>
  <circle cx="12" cy="10" r="1" fill="white"/>
  <circle cx="13" cy="10" r="1" fill="white"/>
  <circle cx="14" cy="10" r="1" fill="white"/>
  <circle cx="15" cy="10" r="1" fill="white"/>
  <circle cx="0" cy="11" r="1" fill="white"/>
  <circle cx="1" cy="11" r="1" fill="white"/>
  <circle cx="2" cy="11" r="1" fill="white"/>
  <circle cx="3" cy="11" r="1" fill="white"/>
  <circle cx="4" cy="11" r="1" fill="white"/>
  <circle cx="5" cy="11" r="1" fill="rgba(34.1161%,34.1161%,34.1161%,1)"/>
  <circle cx="6" cy="11" r="1" fill="grey89"/>
  <circle cx="7" cy="11" r="1" fill="rgba(72,72,72,1)"/>
  <circle cx="8" cy="11" r="1" fill="rgba(230,230,230,1)"/>
  <circle cx="9" cy="11" r="1" fill="rgba(230,230,230,1)"/>
  <circle cx="10" cy="11" r="1" fill="grey30"/>
  <circle cx="11" cy="11" r="1" fill="rgba(253,253,253,1)"/>
  <circle cx="12" cy="11" r="1" fill="white"/>
  <circle cx="13" cy="11" r="1" fill="white"/>
  <circle cx="14" cy="11" r="1" fill="white"/>
  <circle cx="15" cy="11" r="1" fill="white"/>
  <circle cx="0" cy="12" r="1" fill="white"/>
  <circle cx="1" cy="12" r="1" fill="white"/>
  <circle cx="2" cy="12" r="1" fill="white"/>
  <circle cx="3" cy="12" r="1" fill="white"/>
  <circle cx="4" cy="12" r="1" fill="white"/>
  <circle cx="5" cy="12" r="1" fill="rgba(134,134,134,1)"/>
  <circle cx="6" cy="12" r="1" fill="grey73"/>
  <circle cx="7" cy="12" r="1" fill="rgba(80,80,80,1)"/>
  <circle cx="8" cy="12" r="1" fill="rgba(226,226,226,1)"/>
  <circle cx="9" cy="12" r="1" fill="rgba(226,226,226,1)"/>
  <circle cx="10" cy="12" r="1" fill="grey30"/>
  <circle cx="11" cy="12" r="1" fill="white"/>
  <circle cx="12" cy="12" r="1" fill="white"/>
  <circle cx="13" cy="12" r="1" fill="white"/>
  <circle cx="14" cy="12" r="1" fill="white"/>
  <circle cx="15" cy="12" r="1" fill="white"/>
  <circle cx="0" cy="13" r="1" fill="white"/>
  <circle cx="1" cy="13" r="1" fill="white"/>
  <circle cx="2" cy="13" r="1" fill="white"/>
  <circle cx="3" cy="13" r="1" fill="white"/>
  <circle cx="4" cy="13" r="1" fill="white"/>
  <circle cx="5" cy="13" r="1" fill="grey91"/>
  <circle cx="6" cy="13" r="1" fill="rgba(27.8416%,27.8416%,27.8416%,1)"/>
  <circle cx="7" cy="13" r="1" fill="grey50"/>
  <circle cx="8" cy="13" r="1" fill="rgba(174,174,174,1)"/>
  <circle cx="9" cy="13" r="1" fill="grey45"/>
  <circle cx="10" cy="13" r="1" fill="grey71"/>
  <circle cx="11" cy="13" r="1" fill="white"/>
  <circle cx="12" cy="13" r="1" fill="white"/>
  <circle cx="13" cy="13" r="1" fill="white"/>
  <circle cx="14" cy="13" r="1" fill="white"/>
  <circle cx="15" cy="13" r="1" fill="white"/>
  <circle cx="0" cy="14" r="1" fill="white"/>
  <circle cx="1" cy="14" r="1" fill="white"/>
  <circle cx="2" cy="14" r="1" fill="white"/>
  <circle cx="3" cy="14" r="1" fill="white"/>
  <circle cx="4" cy="14" r="1" fill="white"/>
  <circle cx="5" cy="14" r="1" fill="white"/>
  <circle cx="6" cy="14" r="1" fill="grey70"/>
  <circle cx="7" cy="14" r="1" fill="grey15"/>
  <circle cx="8" cy="14" r="1" fill="grey18"/>
  <circle cx="9" cy="14" r="1" fill="rgba(129,129,129,1)"/>
  <circle cx="10" cy="14" r="1" fill="white"/>
  <circle cx="11" cy="14" r="1" fill="white"/>
  <circle cx="12" cy="14" r="1" fill="white"/>
  <circle cx="13" cy="14" r="1" fill="white"/>
  <circle cx="14" cy="14" r="1" fill="white"/>
  <circle cx="15" cy="14" r="1" fill="white"/>
  <circle cx="0" cy="15" r="1" fill="white"/>
  <circle cx="1" cy="15" r="1" fill="white"/>
  <circle cx="2" cy="15" r="1" fill="white"/>
  <circle cx="3" cy="15" r="1" fill="white"/>
  <circle cx="4" cy="15" r="1" fill="white"/>
  <circle cx="5" cy="15" r="1" fill="white"/>
  <circle cx="6" cy="15" r="1" fill="white"/>
  <circle cx="7" cy="15" r="1" fill="grey79"/>
  <circle cx="8" cy="15" r="1" fill="grey59"/>
  <circle cx="9" cy="15" r="1" fill="white"/>
  <circle cx="10" cy="15" r="1" fill="white"/>
  <circle cx="11" cy="15" r="1" fill="white"/>
  <circle cx="12" cy="15" r="1" fill="white"/>
  <circle cx="13" cy="15" r="1" fill="white"/>
  <circle cx="14" cy="15" r="1" fill="white"/>
  <circle cx="15" cy="15" r="1" fill="white"/>
</svg>
