<?xml version="1.0" encoding="UTF-8" standalone="no"?>
<!-- Created with Inkscape (http://www.inkscape.org/) -->

<svg
   xmlns:dc="http://purl.org/dc/elements/1.1/"
   xmlns:cc="http://creativecommons.org/ns#"
   xmlns:rdf="http://www.w3.org/1999/02/22-rdf-syntax-ns#"
   xmlns:svg="http://www.w3.org/2000/svg"
   xmlns="http://www.w3.org/2000/svg"
   xmlns:xlink="http://www.w3.org/1999/xlink"
   xmlns:sodipodi="http://sodipodi.sourceforge.net/DTD/sodipodi-0.dtd"
   xmlns:inkscape="http://www.inkscape.org/namespaces/inkscape"
   width="16"
   height="16"
   id="svg2"
   inkscape:label="Pozadí"
   version="1.1"
   inkscape:version="0.48.0 r9654"
   sodipodi:docname="copyq2.svg">
  <defs
     id="defs3">
    <linearGradient
       id="linearGradient5054">
      <stop
         id="stop5056"
         offset="0"
         style="stop-color:#ffffff;stop-opacity:1;" />
      <stop
         style="stop-color:#017cff;stop-opacity:1;"
         offset="0.61576396"
         id="stop5058" />
      <stop
         id="stop5060"
         offset="1"
         style="stop-color:#000000;stop-opacity:1;" />
    </linearGradient>
    <linearGradient
       id="linearGradient5016">
      <stop
         style="stop-color:#ffffff;stop-opacity:1;"
         offset="0"
         id="stop5018" />
      <stop
         id="stop5028"
         offset="0.54911274"
         style="stop-color:#017cff;stop-opacity:1;" />
      <stop
         style="stop-color:#000000;stop-opacity:1;"
         offset="1"
         id="stop5020" />
    </linearGradient>
    <linearGradient
       inkscape:collect="always"
       id="linearGradient4007">
      <stop
         style="stop-color:#000000;stop-opacity:1;"
         offset="0"
         id="stop4009" />
      <stop
         style="stop-color:#000000;stop-opacity:0;"
         offset="1"
         id="stop4011" />
    </linearGradient>
    <linearGradient
       id="linearGradient3976">
      <stop
         id="stop3978"
         offset="0"
         style="stop-color:#ffffff;stop-opacity:1;" />
      <stop
         style="stop-color:#ffffff;stop-opacity:0.57714283;"
         offset="0.38727573"
         id="stop3980" />
      <stop
         style="stop-color:#000000;stop-opacity:0.21714285;"
         offset="0.59615785"
         id="stop3982" />
      <stop
         id="stop3984"
         offset="0.7370255"
         style="stop-color:#7f7f7f;stop-opacity:0;" />
      <stop
         id="stop3986"
         offset="1"
         style="stop-color:#ffffff;stop-opacity:0.45714286;" />
    </linearGradient>
    <linearGradient
       id="linearGradient3920">
      <stop
         style="stop-color:#ffffff;stop-opacity:1;"
         offset="0"
         id="stop3922" />
      <stop
         id="stop3968"
         offset="0.28967828"
         style="stop-color:#ffffff;stop-opacity:0.57714283;" />
      <stop
         id="stop3930"
         offset="0.5923031"
         style="stop-color:#ff0101;stop-opacity:0.46857142;" />
      <stop
         style="stop-color:#ff1616;stop-opacity:0;"
         offset="0.83927333"
         id="stop3932" />
      <stop
         style="stop-color:#ffffff;stop-opacity:0.46285716;"
         offset="1"
         id="stop3924" />
    </linearGradient>
    <linearGradient
       id="linearGradient3888">
      <stop
         style="stop-color:#d5d5d5;stop-opacity:1;"
         offset="0"
         id="stop3890" />
      <stop
         id="stop3898"
         offset="0.29387325"
         style="stop-color:#99dcff;stop-opacity:1;" />
      <stop
         style="stop-color:#ffffff;stop-opacity:1;"
         offset="0.40750426"
         id="stop3900" />
      <stop
         style="stop-color:#d2d2d2;stop-opacity:1;"
         offset="1"
         id="stop3892" />
    </linearGradient>
    <linearGradient
       id="linearGradient3878">
      <stop
         style="stop-color:#000000;stop-opacity:1;"
         offset="0"
         id="stop3880" />
      <stop
         style="stop-color:#000000;stop-opacity:0;"
         offset="1"
         id="stop3882" />
    </linearGradient>
    <linearGradient
       inkscape:collect="always"
       xlink:href="#linearGradient4007"
       id="linearGradient4013"
       x1="9.4624662"
       y1="1047.7367"
       x2="16.029849"
       y2="1047.7367"
       gradientUnits="userSpaceOnUse" />
  </defs>
  <sodipodi:namedview
     id="base"
     pagecolor="#ffffff"
     bordercolor="#666666"
     borderopacity="1.0"
     inkscape:pageopacity="0.0"
     inkscape:pageshadow="2"
     inkscape:zoom="22.63"
     inkscape:cx="2.3965657"
     inkscape:cy="7.2225443"
     inkscape:document-units="px"
     inkscape:current-layer="layer1"
     showgrid="true"
     inkscape:window-width="1366"
     inkscape:window-height="728"
     inkscape:window-x="0"
     inkscape:window-y="0"
     inkscape:window-maximized="1"
     inkscape:snap-global="false">
    <inkscape:grid
       type="xygrid"
       id="grid3865" />
  </sodipodi:namedview>
  <metadata
     id="metadata6">
    <rdf:RDF>
      <cc:Work
         rdf:about="">
        <dc:format>image/svg+xml</dc:format>
        <dc:type
           rdf:resource="http://purl.org/dc/dcmitype/StillImage" />
        <dc:title></dc:title>
      </cc:Work>
    </rdf:RDF>
  </metadata>
  <g
     inkscape:label="Vrstva 1"
     inkscape:groupmode="layer"
     id="layer1"
     transform="translate(0,-1036.3622)">
    <rect
       style="fill:#000000;fill-opacity:1;fill-rule:nonzero;stroke:none"
       id="rect3032"
       width="15.998291"
       height="15.998291"
       x="-16.044193"
       y="1036.3639" />
    <path
       style="font-size:medium;font-style:normal;font-variant:normal;font-weight:normal;font-stretch:normal;text-indent:0;text-align:start;text-decoration:none;line-height:normal;letter-spacing:normal;word-spacing:normal;text-transform:none;direction:ltr;block-progression:tb;writing-mode:lr-tb;text-anchor:start;baseline-shift:baseline;color:#000000;fill:#ffffff;fill-opacity:1;stroke:#ffffff;stroke-width:1.20000005;stroke-linejoin:round;stroke-miterlimit:4;stroke-opacity:1;stroke-dasharray:none;marker:none;visibility:visible;display:inline;overflow:visible;enable-background:accumulate;font-family:Sans;-inkscape-font-specification:Sans"
       d="m 10.299493,1036.7521 c 0.64714,0.01 2.433893,0.056 2.433893,0.056 l 0.986477,0.042 0.02384,0.9872 c 0,0 0.05055,1.66 0.04314,2.4675 -0.01769,1.9234 -1.628947,3.5051 -3.55202,3.4874 -0.7323215,-0.01 -2.4670535,-0.023 -2.4670535,-0.023 l -1.052663,-0.01 0.0097,-1.0527 c 0,0 0.05016,-1.876 0.05558,-2.467 0.01767,-1.9229 1.59596,-3.5052 3.5191165,-3.4875 z m -0.01932,2.105 c -0.7853485,-0.01 -1.3873555,0.6167 -1.3945695,1.4019 -0.0034,0.3629 -0.03542,0.8327 -0.0459,1.4142 0.562258,0.01 0.98313,0.01 1.4144825,0.012 0.785428,0.01 1.42019,-0.616 1.427411,-1.4013 0.0037,-0.4004 -0.0072,-0.8329 -0.02018,-1.3818 -0.567857,-0.016 -1.050533,-0.042 -1.381226,-0.045 z"
       id="path3025"
       inkscape:connector-curvature="0" />
    <path
       style="fill:#ffffff;fill-opacity:1;stroke:#ffffff;stroke-width:1.20000005;stroke-miterlimit:4;stroke-opacity:1;stroke-dasharray:none"
       d="m 6.6698285,1043.3558 c -4.0372767,6.5921 1.915148,8.8101 1.915148,8.8101 -0.173579,-2.759 -0.0221,-8.4258 -0.0221,-8.4258 0,0 -1.367799,-0.2232 -1.89305,-0.3843 z"
       id="path3027"
       inkscape:connector-curvature="0"
       sodipodi:nodetypes="cccc" />
    <path
       inkscape:connector-curvature="0"
       id="path3029"
       d="m 10.299493,1036.7521 c 0.64714,0.01 2.433893,0.056 2.433893,0.056 l 0.986477,0.042 0.02384,0.9872 c 0,0 0.05055,1.66 0.04314,2.4675 -0.01769,1.9234 -1.628947,3.5051 -3.55202,3.4874 -0.7323215,-0.01 -2.4670535,-0.023 -2.4670535,-0.023 l -1.052663,-0.01 0.0097,-1.0527 c 0,0 0.05016,-1.876 0.05558,-2.467 0.01767,-1.9229 1.59596,-3.5052 3.5191165,-3.4875 z m -0.01932,2.105 c -0.7853485,-0.01 -1.3873555,0.6167 -1.3945695,1.4019 -0.0034,0.3629 -0.03542,0.8327 -0.0459,1.4142 0.562258,0.01 0.98313,0.01 1.4144825,0.012 0.785428,0.01 1.42019,-0.616 1.427411,-1.4013 0.0037,-0.4004 -0.0072,-0.8329 -0.02018,-1.3818 -0.567857,-0.016 -1.050533,-0.042 -1.381226,-0.045 z"
       style="font-size:medium;font-style:normal;font-variant:normal;font-weight:normal;font-stretch:normal;text-indent:0;text-align:start;text-decoration:none;line-height:normal;letter-spacing:normal;word-spacing:normal;text-transform:none;direction:ltr;block-progression:tb;writing-mode:lr-tb;text-anchor:start;baseline-shift:baseline;color:#000000;fill:#d40055;fill-opacity:1;stroke:none;stroke-width:2;marker:none;visibility:visible;display:inline;overflow:visible;enable-background:accumulate;font-family:Sans;-inkscape-font-specification:Sans" />
    <path
       sodipodi:nodetypes="cccc"
       inkscape:connector-curvature="0"
       id="path3031"
       d="m 6.6698285,1043.3558 c -4.0372767,6.5921 1.915148,8.8101 1.915148,8.8101 -0.173579,-2.759 -0.0221,-8.4258 -0.0221,-8.4258 0,0 -1.367799,-0.2232 -1.89305,-0.3843 z"
       style="fill:#333333;fill-opacity:1;stroke:none" />
    <path
       inkscape:connector-curvature="0"
       id="path3033"
       d="m 5.8699652,1036.7521 c -0.64714,0.01 -2.433893,0.056 -2.433893,0.056 l -0.986477,0.042 -0.02384,0.9872 c 0,0 -0.05055,1.66 -0.04314,2.4675 0.01769,1.9234 1.628947,3.5051 3.55202,3.4874 0.7323215,-0.01 2.4670537,-0.023 2.4670537,-0.023 l 1.0526637,-0.01 -0.0097,-1.0527 c 0,0 -0.05016,-1.876 -0.05558,-2.467 -0.01767,-1.9229 -1.5959606,-3.5052 -3.5191173,-3.4875 z m 0.01932,2.105 c 0.7853485,-0.01 1.3873557,0.6167 1.3945697,1.4019 0.0034,0.3629 0.03542,0.8327 0.0459,1.4142 -0.5622582,0.01 -0.9831302,0.01 -1.4144827,0.012 -0.785428,0.01 -1.42019,-0.616 -1.427411,-1.4013 -0.0037,-0.4004 0.0072,-0.8329 0.02018,-1.3818 0.567857,-0.016 1.050533,-0.042 1.381226,-0.045 z"
       style="font-size:medium;font-style:normal;font-variant:normal;font-weight:normal;font-stretch:normal;text-indent:0;text-align:start;text-decoration:none;line-height:normal;letter-spacing:normal;word-spacing:normal;text-transform:none;direction:ltr;block-progression:tb;writing-mode:lr-tb;text-anchor:start;baseline-shift:baseline;color:#000000;fill:#ffffff;fill-opacity:1;stroke:#ffffff;stroke-width:1.20000005;stroke-linejoin:round;stroke-miterlimit:4;stroke-opacity:1;stroke-dasharray:none;marker:none;visibility:visible;display:inline;overflow:visible;enable-background:accumulate;font-family:Sans;-inkscape-font-specification:Sans" />
    <path
       sodipodi:nodetypes="cccc"
       inkscape:connector-curvature="0"
       id="path3035"
       d="m 9.4996307,1043.3558 c 4.0372783,6.5921 -1.9151488,8.8101 -1.9151488,8.8101 0.173579,-2.759 0.0221,-8.4258 0.0221,-8.4258 0,0 1.367799,-0.2232 1.8930508,-0.3843 z"
       style="fill:#ffffff;fill-opacity:1;stroke:#ffffff;stroke-width:1.20000005;stroke-miterlimit:4;stroke-opacity:1;stroke-dasharray:none" />
    <path
       style="font-size:medium;font-style:normal;font-variant:normal;font-weight:normal;font-stretch:normal;text-indent:0;text-align:start;text-decoration:none;line-height:normal;letter-spacing:normal;word-spacing:normal;text-transform:none;direction:ltr;block-progression:tb;writing-mode:lr-tb;text-anchor:start;baseline-shift:baseline;color:#000000;fill:#d40055;fill-opacity:1;stroke:none;stroke-width:2;marker:none;visibility:visible;display:inline;overflow:visible;enable-background:accumulate;font-family:Sans;-inkscape-font-specification:Sans"
       d="m 5.8699652,1036.7521 c -0.64714,0.01 -2.433893,0.056 -2.433893,0.056 l -0.986477,0.042 -0.02384,0.9872 c 0,0 -0.05055,1.66 -0.04314,2.4675 0.01769,1.9234 1.628947,3.5051 3.55202,3.4874 0.7323215,-0.01 2.4670537,-0.023 2.4670537,-0.023 l 1.0526637,-0.01 -0.0097,-1.0527 c 0,0 -0.05016,-1.876 -0.05558,-2.467 -0.01767,-1.9229 -1.5959606,-3.5052 -3.5191173,-3.4875 z m 0.01932,2.105 c 0.7853485,-0.01 1.3873557,0.6167 1.3945697,1.4019 0.0034,0.3629 0.03542,0.8327 0.0459,1.4142 -0.5622582,0.01 -0.9831302,0.01 -1.4144827,0.012 -0.785428,0.01 -1.42019,-0.616 -1.427411,-1.4013 -0.0037,-0.4004 0.0072,-0.8329 0.02018,-1.3818 0.567857,-0.016 1.050533,-0.042 1.381226,-0.045 z"
       id="path3037"
       inkscape:connector-curvature="0" />
    <path
       style="fill:#333333;fill-opacity:1;stroke:none"
       d="m 9.4996307,1043.3558 c 4.0372783,6.5921 -1.9151488,8.8101 -1.9151488,8.8101 0.173579,-2.759 0.0221,-8.4258 0.0221,-8.4258 0,0 1.367799,-0.2232 1.8930508,-0.3843 z"
       id="path3039"
       inkscape:connector-curvature="0"
       sodipodi:nodetypes="cccc" />
  </g>
</svg>
