<?xml version="1.0" encoding="UTF-8" standalone="no"?>
<!-- Created with Inkscape (http://www.inkscape.org/) -->

<svg
   xmlns:dc="http://purl.org/dc/elements/1.1/"
   xmlns:cc="http://creativecommons.org/ns#"
   xmlns:rdf="http://www.w3.org/1999/02/22-rdf-syntax-ns#"
   xmlns:svg="http://www.w3.org/2000/svg"
   xmlns="http://www.w3.org/2000/svg"
   xmlns:sodipodi="http://sodipodi.sourceforge.net/DTD/sodipodi-0.dtd"
   xmlns:inkscape="http://www.inkscape.org/namespaces/inkscape"
   version="1.1"
   width="16"
   height="16"
   id="svg2"
   inkscape:version="0.48.4 r9939"
   sodipodi:docname="icon-running.svg">
  <sodipodi:namedview
     pagecolor="#ffffff"
     bordercolor="#666666"
     borderopacity="1"
     objecttolerance="10"
     gridtolerance="10"
     guidetolerance="10"
     inkscape:pageopacity="0"
     inkscape:pageshadow="2"
     inkscape:window-width="699"
     inkscape:window-height="480"
     id="namedview14"
     showgrid="false"
     inkscape:zoom="14.75"
     inkscape:cx="8"
     inkscape:cy="8"
     inkscape:window-x="0"
     inkscape:window-y="0"
     inkscape:window-maximized="0"
     inkscape:current-layer="svg2" />
  <defs
     id="defs3" />
  <metadata
     id="metadata6">
    <rdf:RDF>
      <cc:Work
         rdf:about="">
        <dc:format>image/svg+xml</dc:format>
        <dc:type
           rdf:resource="http://purl.org/dc/dcmitype/StillImage" />
        <dc:title />
      </cc:Work>
    </rdf:RDF>
  </metadata>
  <g
     transform="translate(0,-1036.3622)"
     id="layer1">
    <path
       d="m 7.4679632,4.2456918 a 3.2699957,3.2699957 0 1 1 -6.53999136,0 3.2699957,3.2699957 0 1 1 6.53999136,0 z"
       transform="matrix(-0.6666505,0.16219374,0.16219374,0.6666505,12.972998,1036.6959)"
       id="path3807"
       style="fill:none;stroke:#000000;stroke-width:4.37255669;stroke-linecap:butt;stroke-linejoin:round;stroke-miterlimit:4;stroke-opacity:1;stroke-dasharray:none;stroke-dashoffset:0" />
    <path
       d="m 8.2437649,1043.1718 c -4.9165616,4.4563 -0.5481982,7.7198 -0.5481982,7.7198 0.5227795,-2.3146 2.0149239,-6.9464 2.0149239,-6.9464 0,0 -1.0729042,-0.5138 -1.4667257,-0.7734 z"
       id="path3809"
       style="fill:#ffffff;fill-opacity:1;stroke:#000000;stroke-width:1.29999995;stroke-miterlimit:4;stroke-opacity:1;stroke-dasharray:none" />
    <path
       d="m 7.4679632,4.2456918 a 3.2699957,3.2699957 0 1 1 -6.53999136,0 3.2699957,3.2699957 0 1 1 6.53999136,0 z"
       transform="matrix(0.66271924,0.17757508,-0.17757508,0.66271924,3.5731874,1036.6101)"
       id="path3805"
       style="fill:none;stroke:#000000;stroke-width:4.37255669;stroke-linecap:butt;stroke-linejoin:round;stroke-miterlimit:4;stroke-opacity:1;stroke-dasharray:none;stroke-dashoffset:0" />
    <path
       d="m 8.2437649,1043.1718 c -4.9165616,4.4563 -0.5481982,7.7198 -0.5481982,7.7198 0.5227795,-2.3146 2.0149239,-6.9464 2.0149239,-6.9464 0,0 -1.0729042,-0.5138 -1.4667257,-0.7734 z"
       id="path3811"
       style="fill:#e6e6e6;fill-opacity:1;stroke:none" />
    <path
       d="m 8.1514141,1043.1856 c 4.8121379,4.5689 0.3694325,7.7304 0.3694325,7.7304 -0.4690819,-2.3261 -1.8536603,-6.9911 -1.8536603,-6.9911 0,0 1.0845062,-0.4889 1.4842278,-0.7393 z"
       id="path3024"
       style="fill:#ffffff;fill-opacity:1;stroke:#000000;stroke-width:1.29999995;stroke-miterlimit:4;stroke-opacity:1;stroke-dasharray:none" />
    <path
       d="m 7.4679632,4.2456918 a 3.2699957,3.2699957 0 1 1 -6.53999136,0 3.2699957,3.2699957 0 1 1 6.53999136,0 z"
       transform="matrix(-0.6666505,0.16219374,0.16219374,0.6666505,12.972998,1036.6959)"
       id="path3813"
       style="fill:none;stroke:#7fca9b;stroke-width:2.67028235999999985;stroke-linecap:butt;stroke-linejoin:round;stroke-miterlimit:4;stroke-opacity:1;stroke-dasharray:none;stroke-dashoffset:0" />
    <path
       d="m 8.1514141,1043.1856 c 4.8121379,4.5689 0.3694325,7.7304 0.3694325,7.7304 -0.4690819,-2.3261 -1.8536603,-6.9911 -1.8536603,-6.9911 0,0 1.0845062,-0.4889 1.4842278,-0.7393 z"
       id="path3846"
       style="fill:#e6e6e6;fill-opacity:1;stroke:none" />
    <path
       d="m 7.4679632,4.2456918 a 3.2699957,3.2699957 0 1 1 -6.53999136,0 3.2699957,3.2699957 0 1 1 6.53999136,0 z"
       transform="matrix(0.66271924,0.17757508,-0.17757508,0.66271924,3.5731874,1036.6101)"
       id="path3025"
       style="fill:none;stroke:#7fca9b;stroke-width:2.67028235999999985;stroke-linecap:butt;stroke-linejoin:round;stroke-miterlimit:4;stroke-opacity:1;stroke-dasharray:none;stroke-dashoffset:0" />
  </g>
</svg>
