<?xml version="1.0" encoding="UTF-8" standalone="no"?>
<!-- Created with Inkscape (http://www.inkscape.org/) -->

<svg
   xmlns:dc="http://purl.org/dc/elements/1.1/"
   xmlns:cc="http://creativecommons.org/ns#"
   xmlns:rdf="http://www.w3.org/1999/02/22-rdf-syntax-ns#"
   xmlns:svg="http://www.w3.org/2000/svg"
   xmlns="http://www.w3.org/2000/svg"
   xmlns:xlink="http://www.w3.org/1999/xlink"
   xmlns:sodipodi="http://sodipodi.sourceforge.net/DTD/sodipodi-0.dtd"
   xmlns:inkscape="http://www.inkscape.org/namespaces/inkscape"
   width="128"
   height="128"
   id="svg2"
   inkscape:label="Pozadí"
   version="1.1"
   inkscape:version="0.48.0 r9654"
   sodipodi:docname="copyq-logo.svg">
  <defs
     id="defs3">
    <linearGradient
       id="linearGradient3914">
      <stop
         style="stop-color:#000000;stop-opacity:1;"
         offset="0"
         id="stop3916" />
      <stop
         id="stop3923"
         offset="0.26719123"
         style="stop-color:#00aad4;stop-opacity:1;" />
      <stop
         style="stop-color:#00aad4;stop-opacity:0;"
         offset="1"
         id="stop3918" />
    </linearGradient>
    <linearGradient
       id="linearGradient3906">
      <stop
         style="stop-color:#333333;stop-opacity:1;"
         offset="0"
         id="stop3908" />
      <stop
         style="stop-color:#000000;stop-opacity:1;"
         offset="1"
         id="stop3910" />
    </linearGradient>
    <linearGradient
       id="linearGradient5054">
      <stop
         id="stop5056"
         offset="0"
         style="stop-color:#ffffff;stop-opacity:1;" />
      <stop
         style="stop-color:#017cff;stop-opacity:1;"
         offset="0.61576396"
         id="stop5058" />
      <stop
         id="stop5060"
         offset="1"
         style="stop-color:#000000;stop-opacity:1;" />
    </linearGradient>
    <linearGradient
       id="linearGradient5016">
      <stop
         style="stop-color:#ffffff;stop-opacity:1;"
         offset="0"
         id="stop5018" />
      <stop
         id="stop5028"
         offset="0.54911274"
         style="stop-color:#017cff;stop-opacity:1;" />
      <stop
         style="stop-color:#000000;stop-opacity:1;"
         offset="1"
         id="stop5020" />
    </linearGradient>
    <linearGradient
       inkscape:collect="always"
       id="linearGradient4007">
      <stop
         style="stop-color:#000000;stop-opacity:1;"
         offset="0"
         id="stop4009" />
      <stop
         style="stop-color:#000000;stop-opacity:0;"
         offset="1"
         id="stop4011" />
    </linearGradient>
    <linearGradient
       id="linearGradient3976">
      <stop
         id="stop3978"
         offset="0"
         style="stop-color:#ffffff;stop-opacity:1;" />
      <stop
         style="stop-color:#ffffff;stop-opacity:0.57714283;"
         offset="0.38727573"
         id="stop3980" />
      <stop
         style="stop-color:#000000;stop-opacity:0.21714285;"
         offset="0.59615785"
         id="stop3982" />
      <stop
         id="stop3984"
         offset="0.7370255"
         style="stop-color:#7f7f7f;stop-opacity:0;" />
      <stop
         id="stop3986"
         offset="1"
         style="stop-color:#ffffff;stop-opacity:0.45714286;" />
    </linearGradient>
    <linearGradient
       id="linearGradient3920">
      <stop
         style="stop-color:#ffffff;stop-opacity:1;"
         offset="0"
         id="stop3922" />
      <stop
         id="stop3968"
         offset="0.28967828"
         style="stop-color:#ffffff;stop-opacity:0.57714283;" />
      <stop
         id="stop3930"
         offset="0.5923031"
         style="stop-color:#ff0101;stop-opacity:0.46857142;" />
      <stop
         style="stop-color:#ff1616;stop-opacity:0;"
         offset="0.83927333"
         id="stop3932" />
      <stop
         style="stop-color:#ffffff;stop-opacity:0.46285716;"
         offset="1"
         id="stop3924" />
    </linearGradient>
    <linearGradient
       id="linearGradient3888">
      <stop
         style="stop-color:#d5d5d5;stop-opacity:1;"
         offset="0"
         id="stop3890" />
      <stop
         id="stop3898"
         offset="0.29387325"
         style="stop-color:#99dcff;stop-opacity:1;" />
      <stop
         style="stop-color:#ffffff;stop-opacity:1;"
         offset="0.40750426"
         id="stop3900" />
      <stop
         style="stop-color:#d2d2d2;stop-opacity:1;"
         offset="1"
         id="stop3892" />
    </linearGradient>
    <linearGradient
       id="linearGradient3878">
      <stop
         style="stop-color:#000000;stop-opacity:1;"
         offset="0"
         id="stop3880" />
      <stop
         style="stop-color:#000000;stop-opacity:0;"
         offset="1"
         id="stop3882" />
    </linearGradient>
    <linearGradient
       inkscape:collect="always"
       xlink:href="#linearGradient4007"
       id="linearGradient4013"
       x1="9.4624662"
       y1="1047.7367"
       x2="16.029848"
       y2="1047.7367"
       gradientUnits="userSpaceOnUse" />
    <linearGradient
       inkscape:collect="always"
       xlink:href="#linearGradient3906"
       id="linearGradient3912"
       x1="5.1103754"
       y1="1047.0624"
       x2="6.3903422"
       y2="1045.0297"
       gradientUnits="userSpaceOnUse"
       gradientTransform="matrix(7.9686664,0,0,7.9686664,1.117186,-7334.2311)" />
    <linearGradient
       inkscape:collect="always"
       xlink:href="#linearGradient3914"
       id="linearGradient3921"
       x1="6.0837522"
       y1="1041.1656"
       x2="18.514559"
       y2="1034.7555"
       gradientUnits="userSpaceOnUse"
       gradientTransform="matrix(7.9686664,0,0,7.9686664,1.117186,-7334.2311)" />
  </defs>
  <sodipodi:namedview
     id="base"
     pagecolor="#ffffff"
     bordercolor="#666666"
     borderopacity="1.0"
     inkscape:pageopacity="0.0"
     inkscape:pageshadow="2"
     inkscape:zoom="4.0004566"
     inkscape:cx="40.017251"
     inkscape:cy="62.744429"
     inkscape:document-units="px"
     inkscape:current-layer="layer1"
     showgrid="true"
     inkscape:window-width="1366"
     inkscape:window-height="728"
     inkscape:window-x="0"
     inkscape:window-y="0"
     inkscape:window-maximized="1"
     inkscape:snap-global="false">
    <inkscape:grid
       type="xygrid"
       id="grid3865"
       empspacing="5"
       visible="true"
       enabled="true"
       snapvisiblegridlinesonly="true" />
  </sodipodi:namedview>
  <metadata
     id="metadata6">
    <rdf:RDF>
      <cc:Work
         rdf:about="">
        <dc:format>image/svg+xml</dc:format>
        <dc:type
           rdf:resource="http://purl.org/dc/dcmitype/StillImage" />
        <dc:title></dc:title>
      </cc:Work>
    </rdf:RDF>
  </metadata>
  <g
     inkscape:label="Vrstva 1"
     inkscape:groupmode="layer"
     id="layer1"
     transform="translate(0,-924.3622)">
    <path
       style="font-size:medium;font-style:normal;font-variant:normal;font-weight:normal;font-stretch:normal;text-indent:0;text-align:start;text-decoration:none;line-height:normal;letter-spacing:normal;word-spacing:normal;text-transform:none;direction:ltr;block-progression:tb;writing-mode:lr-tb;text-anchor:start;baseline-shift:baseline;color:#000000;fill:#ffffff;fill-opacity:1;stroke:#ffffff;stroke-width:9.56239986;stroke-linejoin:round;stroke-miterlimit:4;stroke-opacity:1;stroke-dasharray:none;marker:none;visibility:visible;display:inline;overflow:visible;enable-background:accumulate;font-family:Sans;-inkscape-font-specification:Sans"
       d="m 93.040163,929.46894 c 5.156906,0.0797 19.394627,0.44625 19.394627,0.44625 l 7.86125,0.33469 0.18989,7.86666 c 0,0 0.40266,13.22879 0.34353,19.66349 -0.14088,15.32613 -12.98042,27.93096 -28.304815,27.78992 -5.835621,-0.0797 -19.65918,-0.18328 -19.65918,-0.18328 l -8.388173,-0.0797 0.07706,-8.38862 c 0,0 0.399517,-14.94842 0.442819,-19.65791 0.140838,-15.32374 12.717536,-27.93176 28.042732,-27.79152 z m -0.154114,16.77484 c -6.258256,-0.0797 -11.05521,4.91349 -11.112752,11.17048 -0.02709,2.89183 -0.28249,6.63631 -0.365682,11.26929 4.480287,0.0797 7.834266,0.0797 11.27128,0.0956 6.259101,0.0797 11.317305,-4.9095 11.374855,-11.1673 0.0287,-3.19065 -0.0574,-6.6363 -0.16096,-11.0111 -4.524925,-0.12749 -8.37132,-0.33469 -11.006765,-0.35859 z"
       id="path3020"
       inkscape:connector-curvature="0" />
    <path
       style="fill:#ffffff;fill-opacity:1;stroke:#ffffff;stroke-width:9.56239986;stroke-miterlimit:4;stroke-opacity:1;stroke-dasharray:none"
       d="m 65.156076,975.24495 c -54.126689,29.40665 -21.886054,68.43005 -21.886054,68.43005 9.795102,-19.732 33.418667,-58.23494 33.418667,-58.23494 0,0 -8.549962,-6.99012 -11.532613,-10.19511 z"
       id="path3022"
       inkscape:connector-curvature="0"
       sodipodi:nodetypes="cccc" />
    <path
       inkscape:connector-curvature="0"
       id="path3025"
       d="m 93.040163,929.46894 c 5.156906,0.0797 19.394627,0.44625 19.394627,0.44625 l 7.86125,0.33469 0.18989,7.86666 c 0,0 0.40266,13.22879 0.34353,19.66349 -0.14088,15.32613 -12.98042,27.93096 -28.304815,27.78992 -5.835621,-0.0797 -19.65918,-0.18328 -19.65918,-0.18328 l -8.388173,-0.0797 0.07706,-8.38862 c 0,0 0.399517,-14.94842 0.442819,-19.65791 0.140838,-15.32374 12.717536,-27.93176 28.042732,-27.79152 z m -0.154114,16.77484 c -6.258256,-0.0797 -11.05521,4.91349 -11.112752,11.17048 -0.02709,2.89183 -0.28249,6.63631 -0.365682,11.26929 4.480287,0.0797 7.834266,0.0797 11.27128,0.0956 6.259101,0.0797 11.317305,-4.9095 11.374855,-11.1673 0.0287,-3.19065 -0.0574,-6.6363 -0.16096,-11.0111 -4.524925,-0.12749 -8.37132,-0.33469 -11.006765,-0.35859 z"
       style="font-size:medium;font-style:normal;font-variant:normal;font-weight:normal;font-stretch:normal;text-indent:0;text-align:start;text-decoration:none;line-height:normal;letter-spacing:normal;word-spacing:normal;text-transform:none;direction:ltr;block-progression:tb;writing-mode:lr-tb;text-anchor:start;baseline-shift:baseline;color:#000000;fill:url(#linearGradient3921);fill-opacity:1;stroke:none;stroke-width:2;marker:none;visibility:visible;display:inline;overflow:visible;enable-background:accumulate;font-family:Sans;-inkscape-font-specification:Sans" />
    <path
       inkscape:connector-curvature="0"
       id="path3842"
       d="m 36.704263,929.46894 c -5.156907,0.0797 -19.394626,0.44625 -19.394626,0.44625 l -7.86125,0.33469 -0.1898934,7.86666 c 0,0 -0.4026566,13.22879 -0.3435292,19.66349 0.140886,15.32613 12.9804236,27.93096 28.3048156,27.78992 5.83563,-0.0797 19.659165,-0.18328 19.659165,-0.18328 l 8.388172,-0.0797 -0.07706,-8.38862 c 0,0 -0.399517,-14.94842 -0.442819,-19.65791 C 64.6064,941.9367 52.029708,929.32868 36.704523,929.46892 z m 0.154113,16.77484 c 6.258256,-0.0797 11.05521,4.91349 11.112761,11.17048 0.02709,2.89183 0.282488,6.63631 0.365681,11.26929 -4.480294,0.0797 -7.834275,0.0797 -11.271288,0.0956 -6.259101,0.0797 -11.317307,-4.9095 -11.374857,-11.1673 -0.02868,-3.19065 0.05738,-6.6363 0.160967,-11.0111 4.524919,-0.12749 8.371316,-0.33469 11.00676,-0.35859 z"
       style="font-size:medium;font-style:normal;font-variant:normal;font-weight:normal;font-stretch:normal;text-indent:0;text-align:start;text-decoration:none;line-height:normal;letter-spacing:normal;word-spacing:normal;text-transform:none;direction:ltr;block-progression:tb;writing-mode:lr-tb;text-anchor:start;baseline-shift:baseline;color:#000000;fill:#ffffff;fill-opacity:1;stroke:#ffffff;stroke-width:9.56239986;stroke-linejoin:round;stroke-miterlimit:4;stroke-opacity:1;stroke-dasharray:none;marker:none;visibility:visible;display:inline;overflow:visible;enable-background:accumulate;font-family:Sans;-inkscape-font-specification:Sans" />
    <path
       sodipodi:nodetypes="cccc"
       inkscape:connector-curvature="0"
       id="path3027"
       d="m 65.156076,975.24495 c -54.126689,29.40665 -21.886054,68.43005 -21.886054,68.43005 9.795102,-19.732 33.418667,-58.23494 33.418667,-58.23494 0,0 -8.549962,-6.99012 -11.532613,-10.19511 z"
       style="fill:url(#linearGradient3912);fill-opacity:1;stroke:none" />
    <path
       sodipodi:nodetypes="cccc"
       inkscape:connector-curvature="0"
       id="path3024"
       d="m 64.588334,975.24495 c 54.126696,29.40665 21.886054,68.43005 21.886054,68.43005 -9.795103,-19.732 -33.418663,-58.23494 -33.418663,-58.23494 0,0 8.549956,-6.99012 11.532609,-10.19511 z"
       style="fill:#ffffff;fill-opacity:1;stroke:#ffffff;stroke-width:9.56239986;stroke-miterlimit:4;stroke-opacity:1;stroke-dasharray:none" />
    <path
       style="font-size:medium;font-style:normal;font-variant:normal;font-weight:normal;font-stretch:normal;text-indent:0;text-align:start;text-decoration:none;line-height:normal;letter-spacing:normal;word-spacing:normal;text-transform:none;direction:ltr;block-progression:tb;writing-mode:lr-tb;text-anchor:start;baseline-shift:baseline;color:#000000;fill:#00aad4;fill-opacity:1;stroke:none;stroke-width:2;marker:none;visibility:visible;display:inline;overflow:visible;enable-background:accumulate;font-family:Sans;-inkscape-font-specification:Sans"
       d="m 36.704263,929.46894 c -5.156907,0.0797 -19.394626,0.44625 -19.394626,0.44625 l -7.86125,0.33469 -0.1898934,7.86666 c 0,0 -0.4026566,13.22879 -0.3435292,19.66349 0.140886,15.32613 12.9804236,27.93096 28.3048156,27.78992 5.83563,-0.0797 19.659165,-0.18328 19.659165,-0.18328 l 8.388172,-0.0797 -0.07706,-8.38862 c 0,0 -0.399517,-14.94842 -0.442819,-19.65791 C 64.6064,941.9367 52.029708,929.32868 36.704523,929.46892 z m 0.154113,16.77484 c 6.258256,-0.0797 11.05521,4.91349 11.112761,11.17048 0.02709,2.89183 0.282488,6.63631 0.365681,11.26929 -4.480294,0.0797 -7.834275,0.0797 -11.271288,0.0956 -6.259101,0.0797 -11.317307,-4.9095 -11.374857,-11.1673 -0.02868,-3.19065 0.05738,-6.6363 0.160967,-11.0111 4.524919,-0.12749 8.371316,-0.33469 11.00676,-0.35859 z"
       id="path3844"
       inkscape:connector-curvature="0" />
    <path
       style="fill:#333333;fill-opacity:1;stroke:none"
       d="m 64.588334,975.24495 c 54.126696,29.40665 21.886054,68.43005 21.886054,68.43005 -9.795103,-19.732 -33.418663,-58.23494 -33.418663,-58.23494 0,0 8.549956,-6.99012 11.532609,-10.19511 z"
       id="path3846"
       inkscape:connector-curvature="0"
       sodipodi:nodetypes="cccc" />
  </g>
</svg>
