<?xml version="1.0" encoding="UTF-8" standalone="no"?>
<!-- Created with Inkscape (http://www.inkscape.org/) -->

<svg
   xmlns:svg="http://www.w3.org/2000/svg"
   xmlns="http://www.w3.org/2000/svg"
   xmlns:xlink="http://www.w3.org/1999/xlink"
   version="1.0"
   width="16"
   height="16"
   id="svg2">
  <defs
     id="defs4">
    <linearGradient
       id="linearGradient3654">
      <stop
         id="stop3656"
         style="stop-color:#727272;stop-opacity:1"
         offset="0" />
      <stop
         id="stop3658"
         style="stop-color:#b2b2b2;stop-opacity:1"
         offset="1" />
    </linearGradient>
    <linearGradient
       id="linearGradient48779">
      <stop
         id="stop48781"
         style="stop-color:#aaaaaa;stop-opacity:1"
         offset="0" />
      <stop
         id="stop48783"
         style="stop-color:#7e807a;stop-opacity:1"
         offset="1" />
    </linearGradient>
    <linearGradient
       x1="27.9825"
       y1="3.358309"
       x2="27.9825"
       y2="45.060455"
       id="linearGradient2436"
       xlink:href="#linearGradient48779"
       gradientUnits="userSpaceOnUse"
       gradientTransform="matrix(0.489342,0,0,0.4394995,0.75686751,1.9466225)" />
    <linearGradient
       id="linearGradient3299">
      <stop
         id="stop3301"
         style="stop-color:#cdcdcd;stop-opacity:1"
         offset="0" />
      <stop
         id="stop3303"
         style="stop-color:#f1f1f1;stop-opacity:1"
         offset="1" />
    </linearGradient>
    <linearGradient
       x1="17.839369"
       y1="43.790993"
       x2="17.839369"
       y2="4.859941"
       id="linearGradient2434"
       xlink:href="#linearGradient3299"
       gradientUnits="userSpaceOnUse"
       gradientTransform="matrix(0.489342,0,0,0.4394995,0.75686751,1.9466225)" />
    <linearGradient
       id="linearGradient2238">
      <stop
         id="stop2240"
         style="stop-color:#ffffff;stop-opacity:1"
         offset="0" />
      <stop
         id="stop2242"
         style="stop-color:#ffffff;stop-opacity:0"
         offset="1" />
    </linearGradient>
    <linearGradient
       x1="24.675762"
       y1="4.1577182"
       x2="24.675762"
       y2="46.698467"
       id="linearGradient2431"
       xlink:href="#linearGradient2238"
       gradientUnits="userSpaceOnUse"
       gradientTransform="matrix(0.4662131,0,0,0.4098299,0.810318,3.0763612)" />
    <linearGradient
       x1="101.24215"
       y1="41.692078"
       x2="101.88018"
       y2="-6.7863059"
       id="linearGradient3639"
       xlink:href="#linearGradient3654"
       gradientUnits="userSpaceOnUse"
       gradientTransform="matrix(0.2566016,0,0,0.241958,-13.048989,9.2450845)" />
  </defs>
  <g
     transform="translate(-8,-5.9999964)"
     id="layer1">
    <rect
       width="15.057759"
       height="15.028344"
       rx="0.73712295"
       ry="0.69832265"
       x="8.5010662"
       y="6.5588198"
       id="rect1316"
       style="fill:url(#linearGradient2434);fill-opacity:1;fill-rule:evenodd;stroke:url(#linearGradient2436);stroke-width:1.00213301;stroke-linecap:round;stroke-linejoin:round;stroke-miterlimit:4;stroke-opacity:1;stroke-dasharray:none;stroke-dashoffset:0" />
    <rect
       width="12.940105"
       height="12.969522"
       rx="0"
       ry="0"
       x="9.5588236"
       y="7.529408"
       id="rect2232"
       style="opacity:0.4;fill:none;stroke:url(#linearGradient2431);stroke-width:1.00213301;stroke-linecap:round;stroke-linejoin:round;stroke-miterlimit:4;stroke-opacity:1;stroke-dasharray:none;stroke-dashoffset:0" />
    <path
       d="m 13.789934,9.6259858 c -0.09123,0.00528 -0.178418,0.013232 -0.27264,0.030245 l -0.328771,0.2797637 1.018388,0.9073425 0.05613,0.793924 -0.761786,0.650262 -0.906125,-0.09074 -0.93018,-0.824169 c 0,0 -0.320752,0.302449 -0.320752,0.302449 -0.151592,1.364961 1.363196,2.585924 2.918843,1.769317 l 1.178762,1.141739 -0.05613,0.05293 -0.0401,-0.03781 c -0.09507,-0.09961 -0.256751,-0.146138 -0.433013,-0.143661 -0.29377,0.0041 -0.637211,0.138123 -0.817917,0.370498 -0.861864,1.112085 -2.264525,2.002639 -2.582054,2.109569 -0.607611,0.204622 -0.538308,1.042455 -0.13632,1.444188 l 0.465091,0.483914 c 0.337838,0.354525 1.275821,0.512789 1.691967,-0.173907 0.181443,-0.299407 0.537342,-1.140295 2.124979,-2.487628 0.266649,-0.226031 0.544165,-0.741849 0.304716,-1.020761 l -0.04009,-0.0378 c 0.01398,-0.01315 0.033,-0.03111 0.04811,-0.04537 l 3.159406,3.047157 c 0.197195,0.212505 0.825429,0.376745 1.242914,0 0.403152,-0.36381 0.306182,-0.875713 -0.08821,-1.247595 l -3.00705,-3.047157 c 0.779248,-0.746537 1.571686,-1.504675 1.571686,-1.504675 l 0.785841,-0.05293 1.242914,-1.625653 -1.034425,-0.8619754 -1.60376,1.3005224 0,0.740997 -1.499508,1.466873 -1.13065,-1.149302 C 16.151469,10.748822 15.158368,9.5467816 13.789934,9.6259858 z"
       id="path2140"
       style="opacity:0.6;fill:#000000;fill-opacity:1;fill-rule:nonzero;stroke:none;stroke-width:1;marker:none;visibility:visible;display:inline;overflow:visible" />
    <path
       d="m 13.789934,10.531455 c -0.09123,0.0053 -0.178418,0.01323 -0.27264,0.03025 l -0.328771,0.279763 1.018388,0.907343 0.05613,0.793925 -0.761786,0.650262 -0.906125,-0.09073 -0.93018,-0.82417 c 0,0 -0.320752,0.302448 -0.320752,0.302448 -0.151592,1.36496 1.363196,2.585925 2.918843,1.769317 l 1.178762,1.141739 -0.05613,0.05293 -0.0401,-0.03781 c -0.09507,-0.09961 -0.256751,-0.146138 -0.433013,-0.143662 -0.29377,0.0041 -0.637211,0.138124 -0.817917,0.370499 -0.861864,1.112085 -2.264525,2.002639 -2.582054,2.109569 -0.607611,0.204621 -0.538308,1.042456 -0.13632,1.444187 l 0.465091,0.483915 c 0.337838,0.354525 1.275821,0.512789 1.691967,-0.173907 0.181443,-0.299407 0.537342,-1.140295 2.124979,-2.48763 0.266649,-0.226029 0.544165,-0.741848 0.304716,-1.020759 l -0.04009,-0.03781 c 0.01398,-0.01315 0.033,-0.03111 0.04811,-0.04537 l 3.159406,3.047159 c 0.197195,0.212504 0.825429,0.376744 1.242914,0 0.403152,-0.363813 0.306182,-0.875714 -0.08821,-1.247597 l -3.00705,-3.047157 c 0.779248,-0.746538 1.571686,-1.504674 1.571686,-1.504674 l 0.785841,-0.05293 1.242914,-1.625656 -1.034425,-0.861975 -1.60376,1.300524 0,0.740998 -1.499515,1.46687 -1.13065,-1.149301 c 0.541276,-1.417719 -0.451825,-2.61976 -1.820259,-2.540555 z"
       id="path3391"
       style="opacity:0.6;fill:#ffffff;fill-opacity:1;fill-rule:nonzero;stroke:none;stroke-width:1;marker:none;visibility:visible;display:inline;overflow:visible" />
    <path
       d="m 13.789934,10.076815 c -0.09123,0.0053 -0.178418,0.01323 -0.27264,0.03025 l -0.328771,0.279764 1.018388,0.907342 0.05613,0.793925 -0.761786,0.650263 -0.906125,-0.09073 -0.93018,-0.824169 c 0,0 -0.320752,0.302446 -0.320752,0.302446 -0.151592,1.364962 1.363196,2.585926 2.918843,1.769318 l 1.178762,1.141738 -0.05613,0.05293 -0.0401,-0.03781 c -0.09507,-0.09961 -0.256751,-0.146137 -0.433013,-0.143663 -0.29377,0.0041 -0.637211,0.138125 -0.817917,0.370498 -0.861864,1.112085 -2.264525,2.002638 -2.582054,2.109571 -0.607611,0.204619 -0.538308,1.042454 -0.13632,1.444185 l 0.465091,0.483916 c 0.337838,0.354525 1.275821,0.512789 1.691967,-0.173906 0.181443,-0.299408 0.537342,-1.140296 2.124979,-2.487631 0.266649,-0.22603 0.544165,-0.741848 0.304716,-1.02076 l -0.04009,-0.03781 c 0.01398,-0.01315 0.033,-0.03111 0.04811,-0.04537 l 3.159406,3.047157 c 0.197195,0.212504 0.825429,0.376744 1.242914,0 0.403152,-0.363812 0.306182,-0.875712 -0.08821,-1.247594 l -3.00705,-3.047157 c 0.779248,-0.746539 1.571686,-1.504676 1.571686,-1.504676 l 0.785841,-0.05293 1.242914,-1.625655 -1.034425,-0.861976 -1.60376,1.300524 0,0.740996 -1.499515,1.46687 -1.13065,-1.149299 C 16.151469,11.199656 15.158368,9.9976154 13.789934,10.07682 z"
       id="path3381"
       style="fill:url(#linearGradient3639);fill-opacity:1;fill-rule:nonzero;stroke:none;stroke-width:1;marker:none;visibility:visible;display:inline;overflow:visible" />
  </g>
</svg>
