<?xml version="1.0" encoding="UTF-8" standalone="no"?>
<!-- Created with Inkscape (http://www.inkscape.org/) -->

<svg
   xmlns:dc="http://purl.org/dc/elements/1.1/"
   xmlns:cc="http://creativecommons.org/ns#"
   xmlns:rdf="http://www.w3.org/1999/02/22-rdf-syntax-ns#"
   xmlns:svg="http://www.w3.org/2000/svg"
   xmlns="http://www.w3.org/2000/svg"
   xmlns:sodipodi="http://sodipodi.sourceforge.net/DTD/sodipodi-0.dtd"
   xmlns:inkscape="http://www.inkscape.org/namespaces/inkscape"
   id="svg7384"
   sodipodi:docname="reverse.svg"
   version="1.1"
   inkscape:version="0.48.3.1 r9886"
   height="16.062481"
   width="16.049694">
  <metadata
     id="metadata90">
    <rdf:RDF>
      <cc:Work
         rdf:about="">
        <dc:format>image/svg+xml</dc:format>
        <dc:type
           rdf:resource="http://purl.org/dc/dcmitype/StillImage" />
        <dc:title>Gnome Symbolic Icon Theme</dc:title>
      </cc:Work>
    </rdf:RDF>
  </metadata>
  <sodipodi:namedview
     inkscape:cy="-11.835753"
     pagecolor="#ffffff"
     borderopacity="1"
     showborder="false"
     inkscape:bbox-paths="false"
     guidetolerance="10"
     inkscape:object-paths="true"
     inkscape:window-width="1296"
     showguides="true"
     inkscape:object-nodes="true"
     inkscape:snap-bbox="true"
     inkscape:pageshadow="2"
     inkscape:guide-bbox="true"
     inkscape:snap-nodes="false"
     bordercolor="#666666"
     objecttolerance="10"
     id="namedview88"
     showgrid="false"
     inkscape:window-maximized="0"
     inkscape:window-x="201"
     inkscape:snap-global="true"
     inkscape:window-y="0"
     gridtolerance="10"
     inkscape:window-height="1080"
     inkscape:snap-to-guides="true"
     inkscape:current-layer="layer15"
     inkscape:snap-bbox-midpoints="false"
     inkscape:zoom="11.313708"
     inkscape:cx="3.0032801"
     inkscape:snap-grids="true"
     inkscape:pageopacity="0">
    <inkscape:grid
       spacingx="1px"
       spacingy="1px"
       id="grid4866"
       empspacing="2"
       enabled="true"
       type="xygrid"
       snapvisiblegridlinesonly="true"
       visible="true" />
  </sodipodi:namedview>
  <title
     id="title9167">Gnome Symbolic Icon Theme</title>
  <defs
     id="defs7386" />
  <g
     inkscape:label="status"
     transform="translate(-501.95031,-381.9375)"
     inkscape:groupmode="layer"
     id="layer9"
     style="display:inline" />
  <g
     inkscape:label="devices"
     transform="translate(-501.95031,-381.9375)"
     inkscape:groupmode="layer"
     id="layer10" />
  <g
     inkscape:label="apps"
     transform="translate(-501.95031,-381.9375)"
     inkscape:groupmode="layer"
     id="layer11" />
  <g
     inkscape:label="actions"
     transform="translate(-501.95031,-381.9375)"
     inkscape:groupmode="layer"
     id="layer12" />
  <g
     inkscape:label="places"
     transform="translate(-501.95031,-381.9375)"
     inkscape:groupmode="layer"
     id="layer13" />
  <g
     inkscape:label="mimetypes"
     transform="translate(-501.95031,-381.9375)"
     inkscape:groupmode="layer"
     id="layer14" />
  <g
     inkscape:label="emblems"
     transform="translate(-501.95031,-381.9375)"
     inkscape:groupmode="layer"
     id="layer15"
     style="display:inline">
    <g
       inkscape:label="emblem-important"
       transform="translate(155.8093,-581.17812)"
       id="g14401" />
    <path
       inkscape:connector-curvature="0"
       d="m 509.60656,381.94266 c -0.26239,0.0107 -0.52347,0.0564 -0.78125,0.0937 -3.09327,0.44842 -5.75041,2.70446 -6.59375,5.90625 -0.17991,0.6831 -0.28093,1.35621 -0.28125,2.0313 l 2.625,0 c -2.6e-4,-0.45845 0.0651,-0.91023 0.1875,-1.375 0.75638,-2.87156 3.69095,-4.56886 6.5625,-3.8125 0.92817,0.24448 1.71069,0.77525 2.375,1.4375 l -2.40625,2.75 6.6875,0 0,-7.03125 -2.34375,2.34375 c -0.9959,-0.99039 -2.2682,-1.66565 -3.65625,-2.03125 -0.80043,-0.21084 -1.58785,-0.3463 -2.375,-0.3125 z"
       id="rect4492-7-7"
       style="color:#000000;fill:#666666;fill-opacity:1;fill-rule:nonzero;stroke:none;stroke-width:0.99999970000000005;marker:none;visibility:visible;display:block;overflow:visible;enable-background:new" />
    <path
       inkscape:connector-curvature="0"
       d="m 510.32531,397.96875 c 0.26239,-0.0107 0.52347,-0.0564 0.78125,-0.0937 3.09327,-0.44842 5.75041,-2.70446 6.59375,-5.90625 0.17991,-0.6831 0.28093,-1.35621 0.28125,-2.0313 l -2.625,0 c 2.6e-4,0.45845 -0.0651,0.91023 -0.1875,1.375 -0.75638,2.87156 -3.69095,4.56886 -6.5625,3.8125 -0.92817,-0.24448 -1.71069,-0.77525 -2.375,-1.4375 l 2.40625,-2.75 -6.6875,0 0,7.03125 2.34375,-2.34375 c 0.9959,0.99039 2.2682,1.66565 3.65625,2.03125 0.80043,0.21084 1.58785,0.3463 2.375,0.3125 z"
       id="path14424"
       style="color:#000000;fill:#666666;fill-opacity:1;fill-rule:nonzero;stroke:none;stroke-width:0.99999970000000005;marker:none;visibility:visible;display:block;overflow:visible;enable-background:new" />
  </g>
  <g
     inkscape:label="categories"
     transform="translate(-501.95031,-381.9375)"
     inkscape:groupmode="layer"
     id="g4953"
     style="display:inline" />
</svg>
