<?xml version="1.0" encoding="UTF-8" standalone="no"?>
<!-- Created with Inkscape (http://www.inkscape.org/) -->

<svg
   xmlns:dc="http://purl.org/dc/elements/1.1/"
   xmlns:cc="http://creativecommons.org/ns#"
   xmlns:rdf="http://www.w3.org/1999/02/22-rdf-syntax-ns#"
   xmlns:svg="http://www.w3.org/2000/svg"
   xmlns="http://www.w3.org/2000/svg"
   version="1.1"
   width="64"
   height="64"
   id="svg2"
   xml:space="preserve"><metadata
     id="metadata8"><rdf:RDF><cc:Work
         rdf:about=""><dc:format>image/svg+xml</dc:format><dc:type
           rdf:resource="http://purl.org/dc/dcmitype/StillImage" /><dc:title></dc:title></cc:Work></rdf:RDF></metadata><defs
     id="defs6" /><g
     transform="matrix(1.25,0,0,-1.25,-5,79)"
     id="g10"><path
       d="M 24,16 C 12,16 12,28 12,28 l 0,16 c 0,4 0,4 -4,4 l -7,0 c -1,0 -1,1 -1,1 l 0,2 c 0,1 1,1 1,1 l 11,0 c 0,0 4,0 4,-4 l 0,-20 c 0,0 0,-8 8,-8 l 8,0 4,-4 z m 28,16 -4,4 0,12 c 0,0 0,4 4,4 l 11,0 c 1,0 1,-1 1,-1 l 0,-2 c 0,-1 -1,-1 -1,-1 l -7,0 c -4,0 -4,0 -4,-4 z"
       transform="matrix(0.8,0,0,-0.8,4,63.2)"
       id="path3820"
       style="fill:#484848;fill-opacity:1;stroke:none" /><g
       transform="scale(0.97672596,-1.0238286)"
       id="text3759"
       style="font-size:25.7243309px;font-style:normal;font-variant:normal;font-weight:bold;font-stretch:normal;line-height:125%;letter-spacing:0px;word-spacing:0px;fill:#484848;fill-opacity:1;stroke:none;font-family:Bitstream Vera Sans;-inkscape-font-specification:Bitstream Vera Sans Bold" /></g><g
     transform="matrix(1.1012146,0,0,1.1012145,-2.2142879,-4.9038175)"
     id="text2986"
     style="font-size:64px;font-style:normal;font-variant:normal;font-weight:normal;font-stretch:normal;line-height:125%;letter-spacing:0px;word-spacing:0px;fill:#000000;fill-opacity:1;stroke:none;font-family:Adobe Arabic;-inkscape-font-specification:Adobe Arabic"><path
       d="m 28.836193,44.687662 -1.95631,0 0,-3.353675 -3.353675,0 0,-1.95631 4.052356,-4.052357 5.309985,5.309985 -4.052356,4.052357 M 44.207197,19.535105 c 0.314408,0.314407 0.279473,0.838419 -0.03493,1.152825 L 31.945326,32.914867 c -0.314405,0.314408 -0.838418,0.349341 -1.152825,0.03493 -0.314407,-0.314407 -0.279472,-0.83842 0.03493,-1.152825 l 12.22694,-12.226935 c 0.314406,-0.314407 0.838419,-0.34934 1.152824,-0.03493 m -0.558945,-5.03051 -23.475717,23.475719 0,10.061022 10.061021,0 L 53.709273,24.565617 43.64825,14.504594 m 15.510743,4.611301 c 1.29256,-1.29256 1.29256,-3.458478 0,-4.751038 L 53.849008,9.0548737 c -1.292559,-1.2925617 -3.458476,-1.2925617 -4.751038,0 l -3.213936,3.2139363 10.061021,10.061024 3.213938,-3.213939"
       id="path2993"
       style="fill:#484848;fill-opacity:1" /></g></svg>
