<?xml version="1.0" encoding="UTF-8" standalone="no"?>
<!-- Created with Inkscape (http://www.inkscape.org/) -->

<svg
   xmlns:dc="http://purl.org/dc/elements/1.1/"
   xmlns:cc="http://creativecommons.org/ns#"
   xmlns:rdf="http://www.w3.org/1999/02/22-rdf-syntax-ns#"
   xmlns:svg="http://www.w3.org/2000/svg"
   xmlns="http://www.w3.org/2000/svg"
   version="1.1"
   width="64"
   height="64"
   id="svg2"
   xml:space="preserve"><metadata
     id="metadata8"><rdf:RDF><cc:Work
         rdf:about=""><dc:format>image/svg+xml</dc:format><dc:type
           rdf:resource="http://purl.org/dc/dcmitype/StillImage" /><dc:title></dc:title></cc:Work></rdf:RDF></metadata><defs
     id="defs6" /><g
     transform="matrix(1.25,0,0,-1.25,-5,79)"
     id="g10"><path
       d="m 23.2,50.4 c -9.6,0 -9.6,-9.6 -9.6,-9.6 l 0,-12.8 c 0,-3.2 0,-3.2 -3.2,-3.2 l -5.6,0 C 4,24.8 4,24 4,24 l 0,-1.6 c 0,-0.8 0.8,-0.8 0.8,-0.8 l 8.8,0 c 0,0 3.2,0 3.2,3.2 l 0,16 c 0,0 0,6.4 6.4,6.4 0,0 0,0 12.8,0 0,0 6.4,0 6.4,-6.4 l 0,-16 c 0,0 0,-3.2 3.2,-3.2 l 8.8,0 c 0.8,0 0.8,0.8 0.8,0.8 l 0,1.6 c 0,0.8 -0.8,0.8 -0.8,0.8 l -5.6,0 c -3.2,0 -3.2,0 -3.2,3.2 0,3.2 0,12.8 0,12.8 0,9.6 -9.6,9.6 -9.6,9.6 z"
       id="path3820"
       style="fill:#484848;fill-opacity:1;stroke:none" /></g><g
     transform="translate(0.38351558,3.1505468)"
     id="flowRoot2985"
     style="font-size:42px;font-style:normal;font-variant:normal;font-weight:normal;font-stretch:normal;text-align:center;line-height:125%;letter-spacing:0px;word-spacing:0px;text-anchor:middle;fill:#484848;fill-opacity:1;stroke:none;font-family:FontAwesome;-inkscape-font-specification:FontAwesome"><path
       d="m 21.310547,28.301994 c -0.203128,-0.156228 -0.328127,-0.35154 -0.375,-0.585938 -0.03125,-0.234352 0.01562,-0.453101 0.140625,-0.65625 2.499995,-4.156222 6.124991,-6.234345 10.875,-6.234375 1.249985,3e-5 2.507797,0.242217 3.773437,0.726563 1.265607,0.484403 2.406231,1.13284 3.421875,1.945312 1.015604,0.812527 1.843728,1.812526 2.484375,3 0.640602,1.171898 0.960914,2.406272 0.960938,3.703125 -2.4e-5,0.84377 -0.125024,1.632832 -0.375,2.367188 -0.234398,0.734392 -0.507836,1.335954 -0.820313,1.804687 -0.296897,0.453141 -0.726584,0.914078 -1.289062,1.382813 -0.546896,0.468764 -0.992208,0.812514 -1.335938,1.03125 -0.343769,0.203138 -0.820331,0.476576 -1.429687,0.820312 -0.640643,0.359388 -1.179705,0.8672 -1.617188,1.523438 -0.421891,0.656261 -0.632829,1.179698 -0.632812,1.570312 -1.7e-5,0.265635 -0.09377,0.523447 -0.28125,0.773438 -0.187516,0.234384 -0.406266,0.351571 -0.65625,0.351562 l -5.625,0 c -0.234385,9e-6 -0.43751,-0.140616 -0.609375,-0.421875 -0.156259,-0.296865 -0.234384,-0.59374 -0.234375,-0.890625 l 0,-1.054687 c -9e-6,-1.296863 0.507803,-2.515612 1.523437,-3.65625 1.015614,-1.156234 2.1328,-2.007796 3.351563,-2.554688 0.92186,-0.421857 1.578109,-0.859357 1.96875,-1.3125 0.390609,-0.453106 0.585921,-1.046855 0.585937,-1.78125 -1.6e-5,-0.656229 -0.367203,-1.234353 -1.101562,-1.734375 -0.718765,-0.499977 -1.554701,-0.749977 -2.507813,-0.75 -1.015636,2.3e-5 -1.859386,0.226585 -2.53125,0.679688 -0.546884,0.390647 -1.382821,1.289083 -2.507812,2.695312 -0.203133,0.25002 -0.44532,0.375019 -0.726563,0.375 -0.187506,1.9e-5 -0.382819,-0.06248 -0.585937,-0.1875 l -3.84375,-2.929687 m 6.375,21.585937 0,-5.625 c -9e-6,-0.249993 0.09374,-0.468743 0.28125,-0.65625 0.18749,-0.187493 0.40624,-0.281242 0.65625,-0.28125 l 5.625,0 c 0.249984,8e-6 0.468734,0.09376 0.65625,0.28125 0.187483,0.187507 0.281233,0.406257 0.28125,0.65625 l 0,5.625 c -1.7e-5,0.250001 -0.09377,0.468751 -0.28125,0.65625 -0.187516,0.1875 -0.406266,0.28125 -0.65625,0.28125 l -5.625,0 c -0.25001,0 -0.46876,-0.09375 -0.65625,-0.28125 -0.187509,-0.187499 -0.281259,-0.406249 -0.28125,-0.65625"
       id="path3774" /></g></svg>
