<?xml version="1.0" encoding="UTF-8" standalone="no"?>
<!-- Created with Inkscape (http://www.inkscape.org/) -->

<svg
   xmlns:dc="http://purl.org/dc/elements/1.1/"
   xmlns:cc="http://creativecommons.org/ns#"
   xmlns:rdf="http://www.w3.org/1999/02/22-rdf-syntax-ns#"
   xmlns:svg="http://www.w3.org/2000/svg"
   xmlns="http://www.w3.org/2000/svg"
   version="1.1"
   width="64"
   height="64"
   id="svg2"
   xml:space="preserve"><metadata
     id="metadata8"><rdf:RDF><cc:Work
         rdf:about=""><dc:format>image/svg+xml</dc:format><dc:type
           rdf:resource="http://purl.org/dc/dcmitype/StillImage" /><dc:title></dc:title></cc:Work></rdf:RDF></metadata><defs
     id="defs6" /><g
     transform="matrix(1.25,0,0,-1.25,-5,79)"
     id="g10"><path
       d="m 23.2,50.4 c -9.6,0 -9.6,-9.6 -9.6,-9.6 l 0,-12.8 c 0,-3.2 0,-3.2 -3.2,-3.2 l -5.6,0 C 4,24.8 4,24 4,24 l 0,-1.6 c 0,-0.8 0.8,-0.8 0.8,-0.8 l 8.8,0 c 0,0 3.2,0 3.2,3.2 l 0,16 c 0,0 0,6.4 6.4,6.4 0,0 0,0 12.8,0 0,0 6.4,0 6.4,-6.4 l 0,-16 c 0,0 0,-3.2 3.2,-3.2 l 8.8,0 c 0.8,0 0.8,0.8 0.8,0.8 l 0,1.6 c 0,0.8 -0.8,0.8 -0.8,0.8 l -5.6,0 c -3.2,0 -3.2,0 -3.2,3.2 0,3.2 0,12.8 0,12.8 0,9.6 -9.6,9.6 -9.6,9.6 z"
       id="path3820"
       style="fill:#484848;fill-opacity:1;stroke:none" /><path
       d="m 20.8,37.6 4.8,0 c 0,0 0.8,0 0.8,0.8 0,0.8 0,4.8 0,4.8 0,0 0,0.8 0.8,0.8 0.8,0 4.8,0 4.8,0 0,0 0.8,0 0.8,-0.8 0,-0.8 0,-4.8 0,-4.8 0,0 0,-0.8 0.8,-0.8 0.8,0 4.8,0 4.8,0 0,0 0.8,0 0.8,-0.8 0,-0.8 0,-4.8 0,-4.8 0,0 0,-0.8 -0.8,-0.8 -0.8,0 -4.8,0 -4.8,0 0,0 -0.8,0 -0.8,-0.8 0,-0.8 0,-4.8 0,-4.8 0,0 0,-0.8 -0.8,-0.8 -0.8,0 -4.8,0 -4.8,0 0,0 -0.8,0 -0.8,0.8 0,0.8 0,4.8 0,4.8 0,0 0,0.8 -0.8,0.8 -0.8,0 -4.8,0 -4.8,0 0,0 -0.8,0 -0.8,0.8 0,0.8 0,4.8 0,4.8 0,0 0,0.8 0.8,0.8 z"
       id="path3843"
       style="fill:#484848;fill-opacity:1;stroke:none" /></g></svg>
